G04 #@! TF.GenerationSoftware,KiCad,Pcbnew,5.1.7-a382d34a8~87~ubuntu16.04.1*
G04 #@! TF.CreationDate,2021-01-02T19:07:06+01:00*
G04 #@! TF.ProjectId,basic-bipolar-input-eurorack-power-supply,62617369-632d-4626-9970-6f6c61722d69,rev?*
G04 #@! TF.SameCoordinates,Original*
G04 #@! TF.FileFunction,Legend,Top*
G04 #@! TF.FilePolarity,Positive*
%FSLAX46Y46*%
G04 Gerber Fmt 4.6, Leading zero omitted, Abs format (unit mm)*
G04 Created by KiCad (PCBNEW 5.1.7-a382d34a8~87~ubuntu16.04.1) date 2021-01-02 19:07:06*
%MOMM*%
%LPD*%
G01*
G04 APERTURE LIST*
%ADD10C,0.100000*%
%ADD11C,0.150000*%
%ADD12C,0.120000*%
G04 APERTURE END LIST*
D10*
G36*
X47795000Y-38456000D02*
G01*
X42715000Y-38456000D01*
X42715000Y-33376000D01*
X47795000Y-33376000D01*
X47795000Y-38456000D01*
G37*
X47795000Y-38456000D02*
X42715000Y-38456000D01*
X42715000Y-33376000D01*
X47795000Y-33376000D01*
X47795000Y-38456000D01*
G36*
X47795000Y-18256000D02*
G01*
X42715000Y-18256000D01*
X42715000Y-13176000D01*
X47795000Y-13176000D01*
X47795000Y-18256000D01*
G37*
X47795000Y-18256000D02*
X42715000Y-18256000D01*
X42715000Y-13176000D01*
X47795000Y-13176000D01*
X47795000Y-18256000D01*
D11*
X17920833Y-30011666D02*
X18397023Y-30011666D01*
X17825595Y-30297380D02*
X18158928Y-29297380D01*
X18492261Y-30297380D01*
X19397023Y-30202142D02*
X19349404Y-30249761D01*
X19206547Y-30297380D01*
X19111309Y-30297380D01*
X18968452Y-30249761D01*
X18873214Y-30154523D01*
X18825595Y-30059285D01*
X18777976Y-29868809D01*
X18777976Y-29725952D01*
X18825595Y-29535476D01*
X18873214Y-29440238D01*
X18968452Y-29345000D01*
X19111309Y-29297380D01*
X19206547Y-29297380D01*
X19349404Y-29345000D01*
X19397023Y-29392619D01*
D10*
G36*
X111760000Y-33020000D02*
G01*
X97790000Y-33020000D01*
X97790000Y-31750000D01*
X111760000Y-31750000D01*
X111760000Y-33020000D01*
G37*
X111760000Y-33020000D02*
X97790000Y-33020000D01*
X97790000Y-31750000D01*
X111760000Y-31750000D01*
X111760000Y-33020000D01*
D11*
X90059095Y-39441428D02*
X90821000Y-39441428D01*
X91821000Y-39822380D02*
X91249571Y-39822380D01*
X91535285Y-39822380D02*
X91535285Y-38822380D01*
X91440047Y-38965238D01*
X91344809Y-39060476D01*
X91249571Y-39108095D01*
X92201952Y-38917619D02*
X92249571Y-38870000D01*
X92344809Y-38822380D01*
X92582904Y-38822380D01*
X92678142Y-38870000D01*
X92725761Y-38917619D01*
X92773380Y-39012857D01*
X92773380Y-39108095D01*
X92725761Y-39250952D01*
X92154333Y-39822380D01*
X92773380Y-39822380D01*
X93059095Y-38822380D02*
X93392428Y-39822380D01*
X93725761Y-38822380D01*
X90059095Y-25471428D02*
X90821000Y-25471428D01*
X90440047Y-25852380D02*
X90440047Y-25090476D01*
X91821000Y-25852380D02*
X91249571Y-25852380D01*
X91535285Y-25852380D02*
X91535285Y-24852380D01*
X91440047Y-24995238D01*
X91344809Y-25090476D01*
X91249571Y-25138095D01*
X92201952Y-24947619D02*
X92249571Y-24900000D01*
X92344809Y-24852380D01*
X92582904Y-24852380D01*
X92678142Y-24900000D01*
X92725761Y-24947619D01*
X92773380Y-25042857D01*
X92773380Y-25138095D01*
X92725761Y-25280952D01*
X92154333Y-25852380D01*
X92773380Y-25852380D01*
X93059095Y-24852380D02*
X93392428Y-25852380D01*
X93725761Y-24852380D01*
X90535285Y-11501428D02*
X91297190Y-11501428D01*
X90916238Y-11882380D02*
X90916238Y-11120476D01*
X92249571Y-10882380D02*
X91773380Y-10882380D01*
X91725761Y-11358571D01*
X91773380Y-11310952D01*
X91868619Y-11263333D01*
X92106714Y-11263333D01*
X92201952Y-11310952D01*
X92249571Y-11358571D01*
X92297190Y-11453809D01*
X92297190Y-11691904D01*
X92249571Y-11787142D01*
X92201952Y-11834761D01*
X92106714Y-11882380D01*
X91868619Y-11882380D01*
X91773380Y-11834761D01*
X91725761Y-11787142D01*
X92582904Y-10882380D02*
X92916238Y-11882380D01*
X93249571Y-10882380D01*
X17920833Y-12231666D02*
X18397023Y-12231666D01*
X17825595Y-12517380D02*
X18158928Y-11517380D01*
X18492261Y-12517380D01*
X19397023Y-12422142D02*
X19349404Y-12469761D01*
X19206547Y-12517380D01*
X19111309Y-12517380D01*
X18968452Y-12469761D01*
X18873214Y-12374523D01*
X18825595Y-12279285D01*
X18777976Y-12088809D01*
X18777976Y-11945952D01*
X18825595Y-11755476D01*
X18873214Y-11660238D01*
X18968452Y-11565000D01*
X19111309Y-11517380D01*
X19206547Y-11517380D01*
X19349404Y-11565000D01*
X19397023Y-11612619D01*
X17301785Y-20455000D02*
X17206547Y-20407380D01*
X17063690Y-20407380D01*
X16920833Y-20455000D01*
X16825595Y-20550238D01*
X16777976Y-20645476D01*
X16730357Y-20835952D01*
X16730357Y-20978809D01*
X16777976Y-21169285D01*
X16825595Y-21264523D01*
X16920833Y-21359761D01*
X17063690Y-21407380D01*
X17158928Y-21407380D01*
X17301785Y-21359761D01*
X17349404Y-21312142D01*
X17349404Y-20978809D01*
X17158928Y-20978809D01*
X17777976Y-21407380D02*
X17777976Y-20407380D01*
X18349404Y-21407380D01*
X18349404Y-20407380D01*
X18825595Y-21407380D02*
X18825595Y-20407380D01*
X19063690Y-20407380D01*
X19206547Y-20455000D01*
X19301785Y-20550238D01*
X19349404Y-20645476D01*
X19397023Y-20835952D01*
X19397023Y-20978809D01*
X19349404Y-21169285D01*
X19301785Y-21264523D01*
X19206547Y-21359761D01*
X19063690Y-21407380D01*
X18825595Y-21407380D01*
X106380595Y-19756428D02*
X107142500Y-19756428D01*
X106761547Y-20137380D02*
X106761547Y-19375476D01*
X108142500Y-20137380D02*
X107571071Y-20137380D01*
X107856785Y-20137380D02*
X107856785Y-19137380D01*
X107761547Y-19280238D01*
X107666309Y-19375476D01*
X107571071Y-19423095D01*
X108523452Y-19232619D02*
X108571071Y-19185000D01*
X108666309Y-19137380D01*
X108904404Y-19137380D01*
X108999642Y-19185000D01*
X109047261Y-19232619D01*
X109094880Y-19327857D01*
X109094880Y-19423095D01*
X109047261Y-19565952D01*
X108475833Y-20137380D01*
X109094880Y-20137380D01*
X109380595Y-19137380D02*
X109713928Y-20137380D01*
X110047261Y-19137380D01*
X106904404Y-24265000D02*
X106809166Y-24217380D01*
X106666309Y-24217380D01*
X106523452Y-24265000D01*
X106428214Y-24360238D01*
X106380595Y-24455476D01*
X106332976Y-24645952D01*
X106332976Y-24788809D01*
X106380595Y-24979285D01*
X106428214Y-25074523D01*
X106523452Y-25169761D01*
X106666309Y-25217380D01*
X106761547Y-25217380D01*
X106904404Y-25169761D01*
X106952023Y-25122142D01*
X106952023Y-24788809D01*
X106761547Y-24788809D01*
X107380595Y-25217380D02*
X107380595Y-24217380D01*
X107952023Y-25217380D01*
X107952023Y-24217380D01*
X108428214Y-25217380D02*
X108428214Y-24217380D01*
X108666309Y-24217380D01*
X108809166Y-24265000D01*
X108904404Y-24360238D01*
X108952023Y-24455476D01*
X108999642Y-24645952D01*
X108999642Y-24788809D01*
X108952023Y-24979285D01*
X108904404Y-25074523D01*
X108809166Y-25169761D01*
X108666309Y-25217380D01*
X108428214Y-25217380D01*
X106952023Y-14962142D02*
X106904404Y-15009761D01*
X106761547Y-15057380D01*
X106666309Y-15057380D01*
X106523452Y-15009761D01*
X106428214Y-14914523D01*
X106380595Y-14819285D01*
X106332976Y-14628809D01*
X106332976Y-14485952D01*
X106380595Y-14295476D01*
X106428214Y-14200238D01*
X106523452Y-14105000D01*
X106666309Y-14057380D01*
X106761547Y-14057380D01*
X106904404Y-14105000D01*
X106952023Y-14152619D01*
X107237738Y-14057380D02*
X107571071Y-15057380D01*
X107904404Y-14057380D01*
X106904404Y-11565000D02*
X106809166Y-11517380D01*
X106666309Y-11517380D01*
X106523452Y-11565000D01*
X106428214Y-11660238D01*
X106380595Y-11755476D01*
X106332976Y-11945952D01*
X106332976Y-12088809D01*
X106380595Y-12279285D01*
X106428214Y-12374523D01*
X106523452Y-12469761D01*
X106666309Y-12517380D01*
X106761547Y-12517380D01*
X106904404Y-12469761D01*
X106952023Y-12422142D01*
X106952023Y-12088809D01*
X106761547Y-12088809D01*
X107332976Y-12231666D02*
X107809166Y-12231666D01*
X107237738Y-12517380D02*
X107571071Y-11517380D01*
X107904404Y-12517380D01*
X108094880Y-11517380D02*
X108666309Y-11517380D01*
X108380595Y-12517380D02*
X108380595Y-11517380D01*
X108999642Y-11993571D02*
X109332976Y-11993571D01*
X109475833Y-12517380D02*
X108999642Y-12517380D01*
X108999642Y-11517380D01*
X109475833Y-11517380D01*
X106380595Y-17216428D02*
X107142500Y-17216428D01*
X106761547Y-17597380D02*
X106761547Y-16835476D01*
X108094880Y-16597380D02*
X107618690Y-16597380D01*
X107571071Y-17073571D01*
X107618690Y-17025952D01*
X107713928Y-16978333D01*
X107952023Y-16978333D01*
X108047261Y-17025952D01*
X108094880Y-17073571D01*
X108142500Y-17168809D01*
X108142500Y-17406904D01*
X108094880Y-17502142D01*
X108047261Y-17549761D01*
X107952023Y-17597380D01*
X107713928Y-17597380D01*
X107618690Y-17549761D01*
X107571071Y-17502142D01*
X108428214Y-16597380D02*
X108761547Y-17597380D01*
X109094880Y-16597380D01*
X106380595Y-29916428D02*
X107142500Y-29916428D01*
X108142500Y-30297380D02*
X107571071Y-30297380D01*
X107856785Y-30297380D02*
X107856785Y-29297380D01*
X107761547Y-29440238D01*
X107666309Y-29535476D01*
X107571071Y-29583095D01*
X108523452Y-29392619D02*
X108571071Y-29345000D01*
X108666309Y-29297380D01*
X108904404Y-29297380D01*
X108999642Y-29345000D01*
X109047261Y-29392619D01*
X109094880Y-29487857D01*
X109094880Y-29583095D01*
X109047261Y-29725952D01*
X108475833Y-30297380D01*
X109094880Y-30297380D01*
X109380595Y-29297380D02*
X109713928Y-30297380D01*
X110047261Y-29297380D01*
X106904404Y-26805000D02*
X106809166Y-26757380D01*
X106666309Y-26757380D01*
X106523452Y-26805000D01*
X106428214Y-26900238D01*
X106380595Y-26995476D01*
X106332976Y-27185952D01*
X106332976Y-27328809D01*
X106380595Y-27519285D01*
X106428214Y-27614523D01*
X106523452Y-27709761D01*
X106666309Y-27757380D01*
X106761547Y-27757380D01*
X106904404Y-27709761D01*
X106952023Y-27662142D01*
X106952023Y-27328809D01*
X106761547Y-27328809D01*
X107380595Y-27757380D02*
X107380595Y-26757380D01*
X107952023Y-27757380D01*
X107952023Y-26757380D01*
X108428214Y-27757380D02*
X108428214Y-26757380D01*
X108666309Y-26757380D01*
X108809166Y-26805000D01*
X108904404Y-26900238D01*
X108952023Y-26995476D01*
X108999642Y-27185952D01*
X108999642Y-27328809D01*
X108952023Y-27519285D01*
X108904404Y-27614523D01*
X108809166Y-27709761D01*
X108666309Y-27757380D01*
X108428214Y-27757380D01*
X106904404Y-21725000D02*
X106809166Y-21677380D01*
X106666309Y-21677380D01*
X106523452Y-21725000D01*
X106428214Y-21820238D01*
X106380595Y-21915476D01*
X106332976Y-22105952D01*
X106332976Y-22248809D01*
X106380595Y-22439285D01*
X106428214Y-22534523D01*
X106523452Y-22629761D01*
X106666309Y-22677380D01*
X106761547Y-22677380D01*
X106904404Y-22629761D01*
X106952023Y-22582142D01*
X106952023Y-22248809D01*
X106761547Y-22248809D01*
X107380595Y-22677380D02*
X107380595Y-21677380D01*
X107952023Y-22677380D01*
X107952023Y-21677380D01*
X108428214Y-22677380D02*
X108428214Y-21677380D01*
X108666309Y-21677380D01*
X108809166Y-21725000D01*
X108904404Y-21820238D01*
X108952023Y-21915476D01*
X108999642Y-22105952D01*
X108999642Y-22248809D01*
X108952023Y-22439285D01*
X108904404Y-22534523D01*
X108809166Y-22629761D01*
X108666309Y-22677380D01*
X108428214Y-22677380D01*
D12*
X52370000Y-1995560D02*
X50570000Y-1995560D01*
X51470000Y-1095560D02*
X51470000Y-2895560D01*
X46395000Y-19975000D02*
X46315000Y-19975000D01*
X47169000Y-19935000D02*
X45541000Y-19935000D01*
X47521000Y-19895000D02*
X45189000Y-19895000D01*
X47790000Y-19855000D02*
X44920000Y-19855000D01*
X48016000Y-19815000D02*
X44694000Y-19815000D01*
X48215000Y-19775000D02*
X44495000Y-19775000D01*
X48394000Y-19735000D02*
X44316000Y-19735000D01*
X48558000Y-19695000D02*
X44152000Y-19695000D01*
X48710000Y-19655000D02*
X44000000Y-19655000D01*
X48853000Y-19615000D02*
X43857000Y-19615000D01*
X48987000Y-19575000D02*
X43723000Y-19575000D01*
X49114000Y-19535000D02*
X43596000Y-19535000D01*
X49235000Y-19495000D02*
X43475000Y-19495000D01*
X49351000Y-19455000D02*
X43359000Y-19455000D01*
X49462000Y-19415000D02*
X43248000Y-19415000D01*
X49569000Y-19375000D02*
X43141000Y-19375000D01*
X49672000Y-19335000D02*
X43038000Y-19335000D01*
X49771000Y-19295000D02*
X42939000Y-19295000D01*
X49867000Y-19255000D02*
X42843000Y-19255000D01*
X49960000Y-19215000D02*
X42750000Y-19215000D01*
X50051000Y-19175000D02*
X42659000Y-19175000D01*
X50139000Y-19135000D02*
X42571000Y-19135000D01*
X50224000Y-19095000D02*
X42486000Y-19095000D01*
X50307000Y-19055000D02*
X42403000Y-19055000D01*
X50388000Y-19016000D02*
X42322000Y-19016000D01*
X50468000Y-18976000D02*
X42242000Y-18976000D01*
X50545000Y-18936000D02*
X42165000Y-18936000D01*
X50620000Y-18896000D02*
X42090000Y-18896000D01*
X50694000Y-18856000D02*
X42016000Y-18856000D01*
X50767000Y-18816000D02*
X41943000Y-18816000D01*
X50837000Y-18776000D02*
X41873000Y-18776000D01*
X50907000Y-18736000D02*
X41803000Y-18736000D01*
X50975000Y-18696000D02*
X41735000Y-18696000D01*
X51041000Y-18656000D02*
X41669000Y-18656000D01*
X51107000Y-18616000D02*
X41603000Y-18616000D01*
X51171000Y-18576000D02*
X41539000Y-18576000D01*
X51234000Y-18536000D02*
X41476000Y-18536000D01*
X51296000Y-18496000D02*
X41414000Y-18496000D01*
X51357000Y-18456000D02*
X41353000Y-18456000D01*
X51417000Y-18416000D02*
X41293000Y-18416000D01*
X51475000Y-18376000D02*
X41235000Y-18376000D01*
X51533000Y-18336000D02*
X41177000Y-18336000D01*
X51590000Y-18296000D02*
X41120000Y-18296000D01*
X51646000Y-18256000D02*
X41064000Y-18256000D01*
X51701000Y-18216000D02*
X41009000Y-18216000D01*
X51755000Y-18176000D02*
X40955000Y-18176000D01*
X51809000Y-18136000D02*
X40901000Y-18136000D01*
X51861000Y-18096000D02*
X40849000Y-18096000D01*
X51913000Y-18056000D02*
X40797000Y-18056000D01*
X51964000Y-18016000D02*
X40746000Y-18016000D01*
X52015000Y-17976000D02*
X40695000Y-17976000D01*
X52064000Y-17936000D02*
X40646000Y-17936000D01*
X52113000Y-17896000D02*
X40597000Y-17896000D01*
X52161000Y-17856000D02*
X40549000Y-17856000D01*
X52209000Y-17816000D02*
X40501000Y-17816000D01*
X52256000Y-17776000D02*
X40454000Y-17776000D01*
X52302000Y-17736000D02*
X40408000Y-17736000D01*
X52348000Y-17696000D02*
X40362000Y-17696000D01*
X52393000Y-17656000D02*
X40317000Y-17656000D01*
X52437000Y-17616000D02*
X40273000Y-17616000D01*
X52481000Y-17576000D02*
X40229000Y-17576000D01*
X52525000Y-17536000D02*
X40185000Y-17536000D01*
X52567000Y-17496000D02*
X40143000Y-17496000D01*
X52609000Y-17456000D02*
X40101000Y-17456000D01*
X52651000Y-17416000D02*
X40059000Y-17416000D01*
X52692000Y-17376000D02*
X40018000Y-17376000D01*
X52733000Y-17336000D02*
X39977000Y-17336000D01*
X52773000Y-17296000D02*
X39937000Y-17296000D01*
X52813000Y-17256000D02*
X39897000Y-17256000D01*
X52852000Y-17216000D02*
X39858000Y-17216000D01*
X52891000Y-17176000D02*
X39819000Y-17176000D01*
X52929000Y-17136000D02*
X39781000Y-17136000D01*
X52967000Y-17096000D02*
X39743000Y-17096000D01*
X53004000Y-17056000D02*
X39706000Y-17056000D01*
X53041000Y-17016000D02*
X39669000Y-17016000D01*
X53077000Y-16976000D02*
X39633000Y-16976000D01*
X53113000Y-16936000D02*
X39597000Y-16936000D01*
X53149000Y-16896000D02*
X39561000Y-16896000D01*
X53184000Y-16856000D02*
X39526000Y-16856000D01*
X53219000Y-16816000D02*
X39491000Y-16816000D01*
X53253000Y-16776000D02*
X39457000Y-16776000D01*
X53287000Y-16736000D02*
X39423000Y-16736000D01*
X53320000Y-16696000D02*
X39390000Y-16696000D01*
X53354000Y-16656000D02*
X39356000Y-16656000D01*
X53386000Y-16616000D02*
X39324000Y-16616000D01*
X53419000Y-16576000D02*
X39291000Y-16576000D01*
X53451000Y-16536000D02*
X39259000Y-16536000D01*
X53482000Y-16496000D02*
X39228000Y-16496000D01*
X53514000Y-16456000D02*
X39196000Y-16456000D01*
X53545000Y-16416000D02*
X39165000Y-16416000D01*
X53575000Y-16376000D02*
X39135000Y-16376000D01*
X53605000Y-16336000D02*
X39105000Y-16336000D01*
X53635000Y-16296000D02*
X39075000Y-16296000D01*
X53665000Y-16256000D02*
X39045000Y-16256000D01*
X53694000Y-16216000D02*
X39016000Y-16216000D01*
X53723000Y-16176000D02*
X38987000Y-16176000D01*
X53752000Y-16136000D02*
X38958000Y-16136000D01*
X53780000Y-16096000D02*
X38930000Y-16096000D01*
X53808000Y-16056000D02*
X38902000Y-16056000D01*
X44915000Y-16016000D02*
X38875000Y-16016000D01*
X53835000Y-16016000D02*
X47795000Y-16016000D01*
X44915000Y-15976000D02*
X38847000Y-15976000D01*
X53863000Y-15976000D02*
X47795000Y-15976000D01*
X44915000Y-15936000D02*
X38820000Y-15936000D01*
X53890000Y-15936000D02*
X47795000Y-15936000D01*
X44915000Y-15896000D02*
X38794000Y-15896000D01*
X53916000Y-15896000D02*
X47795000Y-15896000D01*
X44915000Y-15856000D02*
X38767000Y-15856000D01*
X53943000Y-15856000D02*
X47795000Y-15856000D01*
X44915000Y-15816000D02*
X38741000Y-15816000D01*
X53969000Y-15816000D02*
X47795000Y-15816000D01*
X44915000Y-15776000D02*
X38715000Y-15776000D01*
X53995000Y-15776000D02*
X47795000Y-15776000D01*
X44915000Y-15736000D02*
X38690000Y-15736000D01*
X54020000Y-15736000D02*
X47795000Y-15736000D01*
X44915000Y-15696000D02*
X38665000Y-15696000D01*
X54045000Y-15696000D02*
X47795000Y-15696000D01*
X44915000Y-15656000D02*
X38640000Y-15656000D01*
X54070000Y-15656000D02*
X47795000Y-15656000D01*
X44915000Y-15616000D02*
X38615000Y-15616000D01*
X54095000Y-15616000D02*
X47795000Y-15616000D01*
X44915000Y-15576000D02*
X38591000Y-15576000D01*
X54119000Y-15576000D02*
X47795000Y-15576000D01*
X44915000Y-15536000D02*
X38567000Y-15536000D01*
X54143000Y-15536000D02*
X47795000Y-15536000D01*
X44915000Y-15496000D02*
X38543000Y-15496000D01*
X54167000Y-15496000D02*
X47795000Y-15496000D01*
X44915000Y-15456000D02*
X38520000Y-15456000D01*
X54190000Y-15456000D02*
X47795000Y-15456000D01*
X44915000Y-15416000D02*
X38496000Y-15416000D01*
X54214000Y-15416000D02*
X47795000Y-15416000D01*
X44915000Y-15376000D02*
X38473000Y-15376000D01*
X54237000Y-15376000D02*
X47795000Y-15376000D01*
X44915000Y-15336000D02*
X38451000Y-15336000D01*
X54259000Y-15336000D02*
X47795000Y-15336000D01*
X44915000Y-15296000D02*
X38428000Y-15296000D01*
X54282000Y-15296000D02*
X47795000Y-15296000D01*
X44915000Y-15256000D02*
X38406000Y-15256000D01*
X54304000Y-15256000D02*
X47795000Y-15256000D01*
X44915000Y-15216000D02*
X38384000Y-15216000D01*
X54326000Y-15216000D02*
X47795000Y-15216000D01*
X44915000Y-15176000D02*
X38363000Y-15176000D01*
X54347000Y-15176000D02*
X47795000Y-15176000D01*
X44915000Y-15136000D02*
X38341000Y-15136000D01*
X54369000Y-15136000D02*
X47795000Y-15136000D01*
X44915000Y-15096000D02*
X38320000Y-15096000D01*
X54390000Y-15096000D02*
X47795000Y-15096000D01*
X44915000Y-15056000D02*
X38299000Y-15056000D01*
X54411000Y-15056000D02*
X47795000Y-15056000D01*
X44915000Y-15016000D02*
X38279000Y-15016000D01*
X54431000Y-15016000D02*
X47795000Y-15016000D01*
X44915000Y-14976000D02*
X38258000Y-14976000D01*
X54452000Y-14976000D02*
X47795000Y-14976000D01*
X44915000Y-14936000D02*
X38238000Y-14936000D01*
X54472000Y-14936000D02*
X47795000Y-14936000D01*
X44915000Y-14896000D02*
X38218000Y-14896000D01*
X54492000Y-14896000D02*
X47795000Y-14896000D01*
X44915000Y-14856000D02*
X38199000Y-14856000D01*
X54511000Y-14856000D02*
X47795000Y-14856000D01*
X44915000Y-14816000D02*
X38179000Y-14816000D01*
X54531000Y-14816000D02*
X47795000Y-14816000D01*
X44915000Y-14776000D02*
X38160000Y-14776000D01*
X54550000Y-14776000D02*
X47795000Y-14776000D01*
X44915000Y-14736000D02*
X38141000Y-14736000D01*
X54569000Y-14736000D02*
X47795000Y-14736000D01*
X44915000Y-14696000D02*
X38122000Y-14696000D01*
X54588000Y-14696000D02*
X47795000Y-14696000D01*
X44915000Y-14656000D02*
X38104000Y-14656000D01*
X54606000Y-14656000D02*
X47795000Y-14656000D01*
X44915000Y-14616000D02*
X38086000Y-14616000D01*
X54624000Y-14616000D02*
X47795000Y-14616000D01*
X44915000Y-14576000D02*
X38068000Y-14576000D01*
X54642000Y-14576000D02*
X47795000Y-14576000D01*
X44915000Y-14536000D02*
X38050000Y-14536000D01*
X54660000Y-14536000D02*
X47795000Y-14536000D01*
X44915000Y-14496000D02*
X38032000Y-14496000D01*
X54678000Y-14496000D02*
X47795000Y-14496000D01*
X44915000Y-14456000D02*
X38015000Y-14456000D01*
X54695000Y-14456000D02*
X47795000Y-14456000D01*
X44915000Y-14416000D02*
X37998000Y-14416000D01*
X54712000Y-14416000D02*
X47795000Y-14416000D01*
X44915000Y-14376000D02*
X37981000Y-14376000D01*
X54729000Y-14376000D02*
X47795000Y-14376000D01*
X44915000Y-14336000D02*
X37965000Y-14336000D01*
X54745000Y-14336000D02*
X47795000Y-14336000D01*
X44915000Y-14296000D02*
X37948000Y-14296000D01*
X54762000Y-14296000D02*
X47795000Y-14296000D01*
X44915000Y-14256000D02*
X37932000Y-14256000D01*
X54778000Y-14256000D02*
X47795000Y-14256000D01*
X44915000Y-14216000D02*
X37916000Y-14216000D01*
X54794000Y-14216000D02*
X47795000Y-14216000D01*
X44915000Y-14176000D02*
X37900000Y-14176000D01*
X54810000Y-14176000D02*
X47795000Y-14176000D01*
X44915000Y-14136000D02*
X37885000Y-14136000D01*
X54825000Y-14136000D02*
X47795000Y-14136000D01*
X44915000Y-14096000D02*
X37869000Y-14096000D01*
X54841000Y-14096000D02*
X47795000Y-14096000D01*
X44915000Y-14056000D02*
X37854000Y-14056000D01*
X54856000Y-14056000D02*
X47795000Y-14056000D01*
X44915000Y-14016000D02*
X37839000Y-14016000D01*
X54871000Y-14016000D02*
X47795000Y-14016000D01*
X44915000Y-13976000D02*
X37825000Y-13976000D01*
X54885000Y-13976000D02*
X47795000Y-13976000D01*
X44915000Y-13936000D02*
X37810000Y-13936000D01*
X54900000Y-13936000D02*
X47795000Y-13936000D01*
X44915000Y-13896000D02*
X37796000Y-13896000D01*
X54914000Y-13896000D02*
X47795000Y-13896000D01*
X44915000Y-13856000D02*
X37782000Y-13856000D01*
X54928000Y-13856000D02*
X47795000Y-13856000D01*
X44915000Y-13816000D02*
X37768000Y-13816000D01*
X54942000Y-13816000D02*
X47795000Y-13816000D01*
X44915000Y-13776000D02*
X37755000Y-13776000D01*
X54955000Y-13776000D02*
X47795000Y-13776000D01*
X44915000Y-13736000D02*
X37741000Y-13736000D01*
X54969000Y-13736000D02*
X47795000Y-13736000D01*
X44915000Y-13696000D02*
X37728000Y-13696000D01*
X54982000Y-13696000D02*
X47795000Y-13696000D01*
X44915000Y-13656000D02*
X37715000Y-13656000D01*
X54995000Y-13656000D02*
X47795000Y-13656000D01*
X44915000Y-13616000D02*
X37702000Y-13616000D01*
X55008000Y-13616000D02*
X47795000Y-13616000D01*
X44915000Y-13576000D02*
X37690000Y-13576000D01*
X55020000Y-13576000D02*
X47795000Y-13576000D01*
X44915000Y-13536000D02*
X37677000Y-13536000D01*
X55033000Y-13536000D02*
X47795000Y-13536000D01*
X44915000Y-13496000D02*
X37665000Y-13496000D01*
X55045000Y-13496000D02*
X47795000Y-13496000D01*
X44915000Y-13456000D02*
X37653000Y-13456000D01*
X55057000Y-13456000D02*
X47795000Y-13456000D01*
X44915000Y-13416000D02*
X37641000Y-13416000D01*
X55069000Y-13416000D02*
X47795000Y-13416000D01*
X44915000Y-13376000D02*
X37630000Y-13376000D01*
X55080000Y-13376000D02*
X47795000Y-13376000D01*
X44915000Y-13336000D02*
X37618000Y-13336000D01*
X55092000Y-13336000D02*
X47795000Y-13336000D01*
X44915000Y-13296000D02*
X37607000Y-13296000D01*
X55103000Y-13296000D02*
X47795000Y-13296000D01*
X44915000Y-13256000D02*
X37596000Y-13256000D01*
X55114000Y-13256000D02*
X47795000Y-13256000D01*
X44915000Y-13216000D02*
X37585000Y-13216000D01*
X55125000Y-13216000D02*
X47795000Y-13216000D01*
X44915000Y-13176000D02*
X37575000Y-13176000D01*
X55135000Y-13176000D02*
X47795000Y-13176000D01*
X55146000Y-13136000D02*
X37564000Y-13136000D01*
X55156000Y-13096000D02*
X37554000Y-13096000D01*
X55166000Y-13056000D02*
X37544000Y-13056000D01*
X55176000Y-13016000D02*
X37534000Y-13016000D01*
X55186000Y-12976000D02*
X37524000Y-12976000D01*
X55195000Y-12936000D02*
X37515000Y-12936000D01*
X55204000Y-12896000D02*
X37506000Y-12896000D01*
X55213000Y-12856000D02*
X37497000Y-12856000D01*
X55222000Y-12816000D02*
X37488000Y-12816000D01*
X55231000Y-12776000D02*
X37479000Y-12776000D01*
X55240000Y-12736000D02*
X37470000Y-12736000D01*
X55248000Y-12696000D02*
X37462000Y-12696000D01*
X55256000Y-12656000D02*
X37454000Y-12656000D01*
X55264000Y-12616000D02*
X37446000Y-12616000D01*
X55272000Y-12576000D02*
X37438000Y-12576000D01*
X55279000Y-12536000D02*
X37431000Y-12536000D01*
X55287000Y-12496000D02*
X37423000Y-12496000D01*
X55294000Y-12456000D02*
X37416000Y-12456000D01*
X55301000Y-12416000D02*
X37409000Y-12416000D01*
X55308000Y-12376000D02*
X37402000Y-12376000D01*
X55315000Y-12336000D02*
X37395000Y-12336000D01*
X55321000Y-12296000D02*
X37389000Y-12296000D01*
X55327000Y-12256000D02*
X37383000Y-12256000D01*
X55334000Y-12216000D02*
X37376000Y-12216000D01*
X55339000Y-12176000D02*
X37371000Y-12176000D01*
X55345000Y-12136000D02*
X37365000Y-12136000D01*
X55351000Y-12096000D02*
X37359000Y-12096000D01*
X55356000Y-12056000D02*
X37354000Y-12056000D01*
X55361000Y-12016000D02*
X37349000Y-12016000D01*
X55366000Y-11976000D02*
X37344000Y-11976000D01*
X55371000Y-11936000D02*
X37339000Y-11936000D01*
X55376000Y-11896000D02*
X37334000Y-11896000D01*
X55381000Y-11856000D02*
X37329000Y-11856000D01*
X55385000Y-11816000D02*
X37325000Y-11816000D01*
X55389000Y-11776000D02*
X37321000Y-11776000D01*
X55393000Y-11736000D02*
X37317000Y-11736000D01*
X55397000Y-11696000D02*
X37313000Y-11696000D01*
X55400000Y-11656000D02*
X37310000Y-11656000D01*
X55404000Y-11616000D02*
X37306000Y-11616000D01*
X55407000Y-11576000D02*
X37303000Y-11576000D01*
X55410000Y-11535000D02*
X37300000Y-11535000D01*
X55413000Y-11495000D02*
X37297000Y-11495000D01*
X55416000Y-11455000D02*
X37294000Y-11455000D01*
X55418000Y-11415000D02*
X37292000Y-11415000D01*
X55421000Y-11375000D02*
X37289000Y-11375000D01*
X55423000Y-11335000D02*
X37287000Y-11335000D01*
X55425000Y-11295000D02*
X37285000Y-11295000D01*
X55427000Y-11255000D02*
X37283000Y-11255000D01*
X55428000Y-11215000D02*
X37282000Y-11215000D01*
X55430000Y-11175000D02*
X37280000Y-11175000D01*
X55431000Y-11135000D02*
X37279000Y-11135000D01*
X55432000Y-11095000D02*
X37278000Y-11095000D01*
X55433000Y-11055000D02*
X37277000Y-11055000D01*
X55434000Y-11015000D02*
X37276000Y-11015000D01*
X55435000Y-10975000D02*
X37275000Y-10975000D01*
X55435000Y-10935000D02*
X37275000Y-10935000D01*
X55435000Y-10895000D02*
X37275000Y-10895000D01*
X55436000Y-10855000D02*
X37274000Y-10855000D01*
X55475000Y-10855000D02*
G75*
G03*
X55475000Y-10855000I-9120000J0D01*
G01*
X55475000Y-31055000D02*
G75*
G03*
X55475000Y-31055000I-9120000J0D01*
G01*
X55436000Y-31055000D02*
X37274000Y-31055000D01*
X55435000Y-31095000D02*
X37275000Y-31095000D01*
X55435000Y-31135000D02*
X37275000Y-31135000D01*
X55435000Y-31175000D02*
X37275000Y-31175000D01*
X55434000Y-31215000D02*
X37276000Y-31215000D01*
X55433000Y-31255000D02*
X37277000Y-31255000D01*
X55432000Y-31295000D02*
X37278000Y-31295000D01*
X55431000Y-31335000D02*
X37279000Y-31335000D01*
X55430000Y-31375000D02*
X37280000Y-31375000D01*
X55428000Y-31415000D02*
X37282000Y-31415000D01*
X55427000Y-31455000D02*
X37283000Y-31455000D01*
X55425000Y-31495000D02*
X37285000Y-31495000D01*
X55423000Y-31535000D02*
X37287000Y-31535000D01*
X55421000Y-31575000D02*
X37289000Y-31575000D01*
X55418000Y-31615000D02*
X37292000Y-31615000D01*
X55416000Y-31655000D02*
X37294000Y-31655000D01*
X55413000Y-31695000D02*
X37297000Y-31695000D01*
X55410000Y-31735000D02*
X37300000Y-31735000D01*
X55407000Y-31776000D02*
X37303000Y-31776000D01*
X55404000Y-31816000D02*
X37306000Y-31816000D01*
X55400000Y-31856000D02*
X37310000Y-31856000D01*
X55397000Y-31896000D02*
X37313000Y-31896000D01*
X55393000Y-31936000D02*
X37317000Y-31936000D01*
X55389000Y-31976000D02*
X37321000Y-31976000D01*
X55385000Y-32016000D02*
X37325000Y-32016000D01*
X55381000Y-32056000D02*
X37329000Y-32056000D01*
X55376000Y-32096000D02*
X37334000Y-32096000D01*
X55371000Y-32136000D02*
X37339000Y-32136000D01*
X55366000Y-32176000D02*
X37344000Y-32176000D01*
X55361000Y-32216000D02*
X37349000Y-32216000D01*
X55356000Y-32256000D02*
X37354000Y-32256000D01*
X55351000Y-32296000D02*
X37359000Y-32296000D01*
X55345000Y-32336000D02*
X37365000Y-32336000D01*
X55339000Y-32376000D02*
X37371000Y-32376000D01*
X55334000Y-32416000D02*
X37376000Y-32416000D01*
X55327000Y-32456000D02*
X37383000Y-32456000D01*
X55321000Y-32496000D02*
X37389000Y-32496000D01*
X55315000Y-32536000D02*
X37395000Y-32536000D01*
X55308000Y-32576000D02*
X37402000Y-32576000D01*
X55301000Y-32616000D02*
X37409000Y-32616000D01*
X55294000Y-32656000D02*
X37416000Y-32656000D01*
X55287000Y-32696000D02*
X37423000Y-32696000D01*
X55279000Y-32736000D02*
X37431000Y-32736000D01*
X55272000Y-32776000D02*
X37438000Y-32776000D01*
X55264000Y-32816000D02*
X37446000Y-32816000D01*
X55256000Y-32856000D02*
X37454000Y-32856000D01*
X55248000Y-32896000D02*
X37462000Y-32896000D01*
X55240000Y-32936000D02*
X37470000Y-32936000D01*
X55231000Y-32976000D02*
X37479000Y-32976000D01*
X55222000Y-33016000D02*
X37488000Y-33016000D01*
X55213000Y-33056000D02*
X37497000Y-33056000D01*
X55204000Y-33096000D02*
X37506000Y-33096000D01*
X55195000Y-33136000D02*
X37515000Y-33136000D01*
X55186000Y-33176000D02*
X37524000Y-33176000D01*
X55176000Y-33216000D02*
X37534000Y-33216000D01*
X55166000Y-33256000D02*
X37544000Y-33256000D01*
X55156000Y-33296000D02*
X37554000Y-33296000D01*
X55146000Y-33336000D02*
X37564000Y-33336000D01*
X55135000Y-33376000D02*
X47795000Y-33376000D01*
X44915000Y-33376000D02*
X37575000Y-33376000D01*
X55125000Y-33416000D02*
X47795000Y-33416000D01*
X44915000Y-33416000D02*
X37585000Y-33416000D01*
X55114000Y-33456000D02*
X47795000Y-33456000D01*
X44915000Y-33456000D02*
X37596000Y-33456000D01*
X55103000Y-33496000D02*
X47795000Y-33496000D01*
X44915000Y-33496000D02*
X37607000Y-33496000D01*
X55092000Y-33536000D02*
X47795000Y-33536000D01*
X44915000Y-33536000D02*
X37618000Y-33536000D01*
X55080000Y-33576000D02*
X47795000Y-33576000D01*
X44915000Y-33576000D02*
X37630000Y-33576000D01*
X55069000Y-33616000D02*
X47795000Y-33616000D01*
X44915000Y-33616000D02*
X37641000Y-33616000D01*
X55057000Y-33656000D02*
X47795000Y-33656000D01*
X44915000Y-33656000D02*
X37653000Y-33656000D01*
X55045000Y-33696000D02*
X47795000Y-33696000D01*
X44915000Y-33696000D02*
X37665000Y-33696000D01*
X55033000Y-33736000D02*
X47795000Y-33736000D01*
X44915000Y-33736000D02*
X37677000Y-33736000D01*
X55020000Y-33776000D02*
X47795000Y-33776000D01*
X44915000Y-33776000D02*
X37690000Y-33776000D01*
X55008000Y-33816000D02*
X47795000Y-33816000D01*
X44915000Y-33816000D02*
X37702000Y-33816000D01*
X54995000Y-33856000D02*
X47795000Y-33856000D01*
X44915000Y-33856000D02*
X37715000Y-33856000D01*
X54982000Y-33896000D02*
X47795000Y-33896000D01*
X44915000Y-33896000D02*
X37728000Y-33896000D01*
X54969000Y-33936000D02*
X47795000Y-33936000D01*
X44915000Y-33936000D02*
X37741000Y-33936000D01*
X54955000Y-33976000D02*
X47795000Y-33976000D01*
X44915000Y-33976000D02*
X37755000Y-33976000D01*
X54942000Y-34016000D02*
X47795000Y-34016000D01*
X44915000Y-34016000D02*
X37768000Y-34016000D01*
X54928000Y-34056000D02*
X47795000Y-34056000D01*
X44915000Y-34056000D02*
X37782000Y-34056000D01*
X54914000Y-34096000D02*
X47795000Y-34096000D01*
X44915000Y-34096000D02*
X37796000Y-34096000D01*
X54900000Y-34136000D02*
X47795000Y-34136000D01*
X44915000Y-34136000D02*
X37810000Y-34136000D01*
X54885000Y-34176000D02*
X47795000Y-34176000D01*
X44915000Y-34176000D02*
X37825000Y-34176000D01*
X54871000Y-34216000D02*
X47795000Y-34216000D01*
X44915000Y-34216000D02*
X37839000Y-34216000D01*
X54856000Y-34256000D02*
X47795000Y-34256000D01*
X44915000Y-34256000D02*
X37854000Y-34256000D01*
X54841000Y-34296000D02*
X47795000Y-34296000D01*
X44915000Y-34296000D02*
X37869000Y-34296000D01*
X54825000Y-34336000D02*
X47795000Y-34336000D01*
X44915000Y-34336000D02*
X37885000Y-34336000D01*
X54810000Y-34376000D02*
X47795000Y-34376000D01*
X44915000Y-34376000D02*
X37900000Y-34376000D01*
X54794000Y-34416000D02*
X47795000Y-34416000D01*
X44915000Y-34416000D02*
X37916000Y-34416000D01*
X54778000Y-34456000D02*
X47795000Y-34456000D01*
X44915000Y-34456000D02*
X37932000Y-34456000D01*
X54762000Y-34496000D02*
X47795000Y-34496000D01*
X44915000Y-34496000D02*
X37948000Y-34496000D01*
X54745000Y-34536000D02*
X47795000Y-34536000D01*
X44915000Y-34536000D02*
X37965000Y-34536000D01*
X54729000Y-34576000D02*
X47795000Y-34576000D01*
X44915000Y-34576000D02*
X37981000Y-34576000D01*
X54712000Y-34616000D02*
X47795000Y-34616000D01*
X44915000Y-34616000D02*
X37998000Y-34616000D01*
X54695000Y-34656000D02*
X47795000Y-34656000D01*
X44915000Y-34656000D02*
X38015000Y-34656000D01*
X54678000Y-34696000D02*
X47795000Y-34696000D01*
X44915000Y-34696000D02*
X38032000Y-34696000D01*
X54660000Y-34736000D02*
X47795000Y-34736000D01*
X44915000Y-34736000D02*
X38050000Y-34736000D01*
X54642000Y-34776000D02*
X47795000Y-34776000D01*
X44915000Y-34776000D02*
X38068000Y-34776000D01*
X54624000Y-34816000D02*
X47795000Y-34816000D01*
X44915000Y-34816000D02*
X38086000Y-34816000D01*
X54606000Y-34856000D02*
X47795000Y-34856000D01*
X44915000Y-34856000D02*
X38104000Y-34856000D01*
X54588000Y-34896000D02*
X47795000Y-34896000D01*
X44915000Y-34896000D02*
X38122000Y-34896000D01*
X54569000Y-34936000D02*
X47795000Y-34936000D01*
X44915000Y-34936000D02*
X38141000Y-34936000D01*
X54550000Y-34976000D02*
X47795000Y-34976000D01*
X44915000Y-34976000D02*
X38160000Y-34976000D01*
X54531000Y-35016000D02*
X47795000Y-35016000D01*
X44915000Y-35016000D02*
X38179000Y-35016000D01*
X54511000Y-35056000D02*
X47795000Y-35056000D01*
X44915000Y-35056000D02*
X38199000Y-35056000D01*
X54492000Y-35096000D02*
X47795000Y-35096000D01*
X44915000Y-35096000D02*
X38218000Y-35096000D01*
X54472000Y-35136000D02*
X47795000Y-35136000D01*
X44915000Y-35136000D02*
X38238000Y-35136000D01*
X54452000Y-35176000D02*
X47795000Y-35176000D01*
X44915000Y-35176000D02*
X38258000Y-35176000D01*
X54431000Y-35216000D02*
X47795000Y-35216000D01*
X44915000Y-35216000D02*
X38279000Y-35216000D01*
X54411000Y-35256000D02*
X47795000Y-35256000D01*
X44915000Y-35256000D02*
X38299000Y-35256000D01*
X54390000Y-35296000D02*
X47795000Y-35296000D01*
X44915000Y-35296000D02*
X38320000Y-35296000D01*
X54369000Y-35336000D02*
X47795000Y-35336000D01*
X44915000Y-35336000D02*
X38341000Y-35336000D01*
X54347000Y-35376000D02*
X47795000Y-35376000D01*
X44915000Y-35376000D02*
X38363000Y-35376000D01*
X54326000Y-35416000D02*
X47795000Y-35416000D01*
X44915000Y-35416000D02*
X38384000Y-35416000D01*
X54304000Y-35456000D02*
X47795000Y-35456000D01*
X44915000Y-35456000D02*
X38406000Y-35456000D01*
X54282000Y-35496000D02*
X47795000Y-35496000D01*
X44915000Y-35496000D02*
X38428000Y-35496000D01*
X54259000Y-35536000D02*
X47795000Y-35536000D01*
X44915000Y-35536000D02*
X38451000Y-35536000D01*
X54237000Y-35576000D02*
X47795000Y-35576000D01*
X44915000Y-35576000D02*
X38473000Y-35576000D01*
X54214000Y-35616000D02*
X47795000Y-35616000D01*
X44915000Y-35616000D02*
X38496000Y-35616000D01*
X54190000Y-35656000D02*
X47795000Y-35656000D01*
X44915000Y-35656000D02*
X38520000Y-35656000D01*
X54167000Y-35696000D02*
X47795000Y-35696000D01*
X44915000Y-35696000D02*
X38543000Y-35696000D01*
X54143000Y-35736000D02*
X47795000Y-35736000D01*
X44915000Y-35736000D02*
X38567000Y-35736000D01*
X54119000Y-35776000D02*
X47795000Y-35776000D01*
X44915000Y-35776000D02*
X38591000Y-35776000D01*
X54095000Y-35816000D02*
X47795000Y-35816000D01*
X44915000Y-35816000D02*
X38615000Y-35816000D01*
X54070000Y-35856000D02*
X47795000Y-35856000D01*
X44915000Y-35856000D02*
X38640000Y-35856000D01*
X54045000Y-35896000D02*
X47795000Y-35896000D01*
X44915000Y-35896000D02*
X38665000Y-35896000D01*
X54020000Y-35936000D02*
X47795000Y-35936000D01*
X44915000Y-35936000D02*
X38690000Y-35936000D01*
X53995000Y-35976000D02*
X47795000Y-35976000D01*
X44915000Y-35976000D02*
X38715000Y-35976000D01*
X53969000Y-36016000D02*
X47795000Y-36016000D01*
X44915000Y-36016000D02*
X38741000Y-36016000D01*
X53943000Y-36056000D02*
X47795000Y-36056000D01*
X44915000Y-36056000D02*
X38767000Y-36056000D01*
X53916000Y-36096000D02*
X47795000Y-36096000D01*
X44915000Y-36096000D02*
X38794000Y-36096000D01*
X53890000Y-36136000D02*
X47795000Y-36136000D01*
X44915000Y-36136000D02*
X38820000Y-36136000D01*
X53863000Y-36176000D02*
X47795000Y-36176000D01*
X44915000Y-36176000D02*
X38847000Y-36176000D01*
X53835000Y-36216000D02*
X47795000Y-36216000D01*
X44915000Y-36216000D02*
X38875000Y-36216000D01*
X53808000Y-36256000D02*
X38902000Y-36256000D01*
X53780000Y-36296000D02*
X38930000Y-36296000D01*
X53752000Y-36336000D02*
X38958000Y-36336000D01*
X53723000Y-36376000D02*
X38987000Y-36376000D01*
X53694000Y-36416000D02*
X39016000Y-36416000D01*
X53665000Y-36456000D02*
X39045000Y-36456000D01*
X53635000Y-36496000D02*
X39075000Y-36496000D01*
X53605000Y-36536000D02*
X39105000Y-36536000D01*
X53575000Y-36576000D02*
X39135000Y-36576000D01*
X53545000Y-36616000D02*
X39165000Y-36616000D01*
X53514000Y-36656000D02*
X39196000Y-36656000D01*
X53482000Y-36696000D02*
X39228000Y-36696000D01*
X53451000Y-36736000D02*
X39259000Y-36736000D01*
X53419000Y-36776000D02*
X39291000Y-36776000D01*
X53386000Y-36816000D02*
X39324000Y-36816000D01*
X53354000Y-36856000D02*
X39356000Y-36856000D01*
X53320000Y-36896000D02*
X39390000Y-36896000D01*
X53287000Y-36936000D02*
X39423000Y-36936000D01*
X53253000Y-36976000D02*
X39457000Y-36976000D01*
X53219000Y-37016000D02*
X39491000Y-37016000D01*
X53184000Y-37056000D02*
X39526000Y-37056000D01*
X53149000Y-37096000D02*
X39561000Y-37096000D01*
X53113000Y-37136000D02*
X39597000Y-37136000D01*
X53077000Y-37176000D02*
X39633000Y-37176000D01*
X53041000Y-37216000D02*
X39669000Y-37216000D01*
X53004000Y-37256000D02*
X39706000Y-37256000D01*
X52967000Y-37296000D02*
X39743000Y-37296000D01*
X52929000Y-37336000D02*
X39781000Y-37336000D01*
X52891000Y-37376000D02*
X39819000Y-37376000D01*
X52852000Y-37416000D02*
X39858000Y-37416000D01*
X52813000Y-37456000D02*
X39897000Y-37456000D01*
X52773000Y-37496000D02*
X39937000Y-37496000D01*
X52733000Y-37536000D02*
X39977000Y-37536000D01*
X52692000Y-37576000D02*
X40018000Y-37576000D01*
X52651000Y-37616000D02*
X40059000Y-37616000D01*
X52609000Y-37656000D02*
X40101000Y-37656000D01*
X52567000Y-37696000D02*
X40143000Y-37696000D01*
X52525000Y-37736000D02*
X40185000Y-37736000D01*
X52481000Y-37776000D02*
X40229000Y-37776000D01*
X52437000Y-37816000D02*
X40273000Y-37816000D01*
X52393000Y-37856000D02*
X40317000Y-37856000D01*
X52348000Y-37896000D02*
X40362000Y-37896000D01*
X52302000Y-37936000D02*
X40408000Y-37936000D01*
X52256000Y-37976000D02*
X40454000Y-37976000D01*
X52209000Y-38016000D02*
X40501000Y-38016000D01*
X52161000Y-38056000D02*
X40549000Y-38056000D01*
X52113000Y-38096000D02*
X40597000Y-38096000D01*
X52064000Y-38136000D02*
X40646000Y-38136000D01*
X52015000Y-38176000D02*
X40695000Y-38176000D01*
X51964000Y-38216000D02*
X40746000Y-38216000D01*
X51913000Y-38256000D02*
X40797000Y-38256000D01*
X51861000Y-38296000D02*
X40849000Y-38296000D01*
X51809000Y-38336000D02*
X40901000Y-38336000D01*
X51755000Y-38376000D02*
X40955000Y-38376000D01*
X51701000Y-38416000D02*
X41009000Y-38416000D01*
X51646000Y-38456000D02*
X41064000Y-38456000D01*
X51590000Y-38496000D02*
X41120000Y-38496000D01*
X51533000Y-38536000D02*
X41177000Y-38536000D01*
X51475000Y-38576000D02*
X41235000Y-38576000D01*
X51417000Y-38616000D02*
X41293000Y-38616000D01*
X51357000Y-38656000D02*
X41353000Y-38656000D01*
X51296000Y-38696000D02*
X41414000Y-38696000D01*
X51234000Y-38736000D02*
X41476000Y-38736000D01*
X51171000Y-38776000D02*
X41539000Y-38776000D01*
X51107000Y-38816000D02*
X41603000Y-38816000D01*
X51041000Y-38856000D02*
X41669000Y-38856000D01*
X50975000Y-38896000D02*
X41735000Y-38896000D01*
X50907000Y-38936000D02*
X41803000Y-38936000D01*
X50837000Y-38976000D02*
X41873000Y-38976000D01*
X50767000Y-39016000D02*
X41943000Y-39016000D01*
X50694000Y-39056000D02*
X42016000Y-39056000D01*
X50620000Y-39096000D02*
X42090000Y-39096000D01*
X50545000Y-39136000D02*
X42165000Y-39136000D01*
X50468000Y-39176000D02*
X42242000Y-39176000D01*
X50388000Y-39216000D02*
X42322000Y-39216000D01*
X50307000Y-39255000D02*
X42403000Y-39255000D01*
X50224000Y-39295000D02*
X42486000Y-39295000D01*
X50139000Y-39335000D02*
X42571000Y-39335000D01*
X50051000Y-39375000D02*
X42659000Y-39375000D01*
X49960000Y-39415000D02*
X42750000Y-39415000D01*
X49867000Y-39455000D02*
X42843000Y-39455000D01*
X49771000Y-39495000D02*
X42939000Y-39495000D01*
X49672000Y-39535000D02*
X43038000Y-39535000D01*
X49569000Y-39575000D02*
X43141000Y-39575000D01*
X49462000Y-39615000D02*
X43248000Y-39615000D01*
X49351000Y-39655000D02*
X43359000Y-39655000D01*
X49235000Y-39695000D02*
X43475000Y-39695000D01*
X49114000Y-39735000D02*
X43596000Y-39735000D01*
X48987000Y-39775000D02*
X43723000Y-39775000D01*
X48853000Y-39815000D02*
X43857000Y-39815000D01*
X48710000Y-39855000D02*
X44000000Y-39855000D01*
X48558000Y-39895000D02*
X44152000Y-39895000D01*
X48394000Y-39935000D02*
X44316000Y-39935000D01*
X48215000Y-39975000D02*
X44495000Y-39975000D01*
X48016000Y-40015000D02*
X44694000Y-40015000D01*
X47790000Y-40055000D02*
X44920000Y-40055000D01*
X47521000Y-40095000D02*
X45189000Y-40095000D01*
X47169000Y-40135000D02*
X45541000Y-40135000D01*
X46395000Y-40175000D02*
X46315000Y-40175000D01*
X51470000Y-21295560D02*
X51470000Y-23095560D01*
X52370000Y-22195560D02*
X50570000Y-22195560D01*
X31315000Y-8855000D02*
X28375000Y-8855000D01*
X31315000Y-9095000D02*
X28375000Y-9095000D01*
X31315000Y-8975000D02*
X28375000Y-8975000D01*
X29845000Y-14535000D02*
X29845000Y-13515000D01*
X29845000Y-7055000D02*
X29845000Y-8075000D01*
X31315000Y-13515000D02*
X31315000Y-8075000D01*
X28375000Y-13515000D02*
X31315000Y-13515000D01*
X28375000Y-8075000D02*
X28375000Y-13515000D01*
X31315000Y-8075000D02*
X28375000Y-8075000D01*
X31315000Y-28395000D02*
X28375000Y-28395000D01*
X28375000Y-28395000D02*
X28375000Y-33835000D01*
X28375000Y-33835000D02*
X31315000Y-33835000D01*
X31315000Y-33835000D02*
X31315000Y-28395000D01*
X29845000Y-27375000D02*
X29845000Y-28395000D01*
X29845000Y-34855000D02*
X29845000Y-33835000D01*
X31315000Y-29295000D02*
X28375000Y-29295000D01*
X31315000Y-29415000D02*
X28375000Y-29415000D01*
X31315000Y-29175000D02*
X28375000Y-29175000D01*
X94575000Y-20955000D02*
G75*
G03*
X94575000Y-20955000I-2500000J0D01*
G01*
X89515000Y-19410000D02*
X89515000Y-22500000D01*
X95065000Y-20955462D02*
G75*
G03*
X89515000Y-19410170I-2990000J462D01*
G01*
X95065000Y-20954538D02*
G75*
G02*
X89515000Y-22499830I-2990000J-462D01*
G01*
X94575000Y-34925000D02*
G75*
G03*
X94575000Y-34925000I-2500000J0D01*
G01*
X89515000Y-33380000D02*
X89515000Y-36470000D01*
X95065000Y-34925462D02*
G75*
G03*
X89515000Y-33380170I-2990000J462D01*
G01*
X95065000Y-34924538D02*
G75*
G02*
X89515000Y-36469830I-2990000J-462D01*
G01*
X89515000Y-5440000D02*
X89515000Y-8530000D01*
X94575000Y-6985000D02*
G75*
G03*
X94575000Y-6985000I-2500000J0D01*
G01*
X95065000Y-6984538D02*
G75*
G02*
X89515000Y-8529830I-2990000J-462D01*
G01*
X95065000Y-6985462D02*
G75*
G03*
X89515000Y-5440170I-2990000J462D01*
G01*
X87730000Y-17685000D02*
X87400000Y-17685000D01*
X87730000Y-24225000D02*
X87730000Y-17685000D01*
X87400000Y-24225000D02*
X87730000Y-24225000D01*
X84990000Y-17685000D02*
X85320000Y-17685000D01*
X84990000Y-24225000D02*
X84990000Y-17685000D01*
X85320000Y-24225000D02*
X84990000Y-24225000D01*
X85320000Y-38195000D02*
X84990000Y-38195000D01*
X84990000Y-38195000D02*
X84990000Y-31655000D01*
X84990000Y-31655000D02*
X85320000Y-31655000D01*
X87400000Y-38195000D02*
X87730000Y-38195000D01*
X87730000Y-38195000D02*
X87730000Y-31655000D01*
X87730000Y-31655000D02*
X87400000Y-31655000D01*
X87400000Y-3715000D02*
X87730000Y-3715000D01*
X87730000Y-3715000D02*
X87730000Y-10255000D01*
X87730000Y-10255000D02*
X87400000Y-10255000D01*
X85320000Y-3715000D02*
X84990000Y-3715000D01*
X84990000Y-3715000D02*
X84990000Y-10255000D01*
X84990000Y-10255000D02*
X85320000Y-10255000D01*
X70580000Y-15835000D02*
X70580000Y-26075000D01*
X65939000Y-15835000D02*
X65939000Y-26075000D01*
X70580000Y-15835000D02*
X65939000Y-15835000D01*
X70580000Y-26075000D02*
X65939000Y-26075000D01*
X69070000Y-15835000D02*
X69070000Y-26075000D01*
X70580000Y-19105000D02*
X69070000Y-19105000D01*
X70580000Y-22806000D02*
X69070000Y-22806000D01*
X70580000Y-29805000D02*
X70580000Y-40045000D01*
X65939000Y-29805000D02*
X65939000Y-40045000D01*
X70580000Y-29805000D02*
X65939000Y-29805000D01*
X70580000Y-40045000D02*
X65939000Y-40045000D01*
X69070000Y-29805000D02*
X69070000Y-40045000D01*
X70580000Y-33075000D02*
X69070000Y-33075000D01*
X70580000Y-36776000D02*
X69070000Y-36776000D01*
X70580000Y-8836000D02*
X69070000Y-8836000D01*
X70580000Y-5135000D02*
X69070000Y-5135000D01*
X69070000Y-1865000D02*
X69070000Y-12105000D01*
X70580000Y-12105000D02*
X65939000Y-12105000D01*
X70580000Y-1865000D02*
X65939000Y-1865000D01*
X65939000Y-1865000D02*
X65939000Y-12105000D01*
X70580000Y-1865000D02*
X70580000Y-12105000D01*
X59980000Y-18602712D02*
X59530000Y-18602712D01*
X59755000Y-18377712D02*
X59755000Y-18827712D01*
X57360000Y-23034740D02*
G75*
G02*
X57360000Y-18795259I1060000J2119740D01*
G01*
X59480000Y-23034740D02*
G75*
G03*
X59480000Y-18795259I-1060000J2119740D01*
G01*
X59755000Y-32347712D02*
X59755000Y-32797712D01*
X59980000Y-32572712D02*
X59530000Y-32572712D01*
X59480000Y-37004740D02*
G75*
G03*
X59480000Y-32765259I-1060000J2119740D01*
G01*
X57360000Y-37004740D02*
G75*
G02*
X57360000Y-32765259I1060000J2119740D01*
G01*
X59755000Y-4407712D02*
X59755000Y-4857712D01*
X59980000Y-4632712D02*
X59530000Y-4632712D01*
X59480000Y-9064740D02*
G75*
G03*
X59480000Y-4825259I-1060000J2119740D01*
G01*
X57360000Y-9064740D02*
G75*
G02*
X57360000Y-4825259I1060000J2119740D01*
G01*
X79030000Y-18602712D02*
X78580000Y-18602712D01*
X78805000Y-18377712D02*
X78805000Y-18827712D01*
X76410000Y-23034740D02*
G75*
G02*
X76410000Y-18795259I1060000J2119740D01*
G01*
X78530000Y-23034740D02*
G75*
G03*
X78530000Y-18795259I-1060000J2119740D01*
G01*
X78805000Y-32347712D02*
X78805000Y-32797712D01*
X79030000Y-32572712D02*
X78580000Y-32572712D01*
X78530000Y-37004740D02*
G75*
G03*
X78530000Y-32765259I-1060000J2119740D01*
G01*
X76410000Y-37004740D02*
G75*
G02*
X76410000Y-32765259I1060000J2119740D01*
G01*
X79030000Y-4632712D02*
X78580000Y-4632712D01*
X78805000Y-4407712D02*
X78805000Y-4857712D01*
X76410000Y-9064740D02*
G75*
G02*
X76410000Y-4825259I1060000J2119740D01*
G01*
X78530000Y-9064740D02*
G75*
G03*
X78530000Y-4825259I-1060000J2119740D01*
G01*
X35760000Y-8855000D02*
X32820000Y-8855000D01*
X35760000Y-9095000D02*
X32820000Y-9095000D01*
X35760000Y-8975000D02*
X32820000Y-8975000D01*
X34290000Y-14535000D02*
X34290000Y-13515000D01*
X34290000Y-7055000D02*
X34290000Y-8075000D01*
X35760000Y-13515000D02*
X35760000Y-8075000D01*
X32820000Y-13515000D02*
X35760000Y-13515000D01*
X32820000Y-8075000D02*
X32820000Y-13515000D01*
X35760000Y-8075000D02*
X32820000Y-8075000D01*
X35760000Y-28395000D02*
X32820000Y-28395000D01*
X32820000Y-28395000D02*
X32820000Y-33835000D01*
X32820000Y-33835000D02*
X35760000Y-33835000D01*
X35760000Y-33835000D02*
X35760000Y-28395000D01*
X34290000Y-27375000D02*
X34290000Y-28395000D01*
X34290000Y-34855000D02*
X34290000Y-33835000D01*
X35760000Y-29295000D02*
X32820000Y-29295000D01*
X35760000Y-29415000D02*
X32820000Y-29415000D01*
X35760000Y-29175000D02*
X32820000Y-29175000D01*
X83385000Y-18235000D02*
X80445000Y-18235000D01*
X80445000Y-18235000D02*
X80445000Y-23675000D01*
X80445000Y-23675000D02*
X83385000Y-23675000D01*
X83385000Y-23675000D02*
X83385000Y-18235000D01*
X81915000Y-17215000D02*
X81915000Y-18235000D01*
X81915000Y-24695000D02*
X81915000Y-23675000D01*
X83385000Y-19135000D02*
X80445000Y-19135000D01*
X83385000Y-19255000D02*
X80445000Y-19255000D01*
X83385000Y-19015000D02*
X80445000Y-19015000D01*
X83385000Y-32985000D02*
X80445000Y-32985000D01*
X83385000Y-33225000D02*
X80445000Y-33225000D01*
X83385000Y-33105000D02*
X80445000Y-33105000D01*
X81915000Y-38665000D02*
X81915000Y-37645000D01*
X81915000Y-31185000D02*
X81915000Y-32205000D01*
X83385000Y-37645000D02*
X83385000Y-32205000D01*
X80445000Y-37645000D02*
X83385000Y-37645000D01*
X80445000Y-32205000D02*
X80445000Y-37645000D01*
X83385000Y-32205000D02*
X80445000Y-32205000D01*
X83385000Y-4265000D02*
X80445000Y-4265000D01*
X80445000Y-4265000D02*
X80445000Y-9705000D01*
X80445000Y-9705000D02*
X83385000Y-9705000D01*
X83385000Y-9705000D02*
X83385000Y-4265000D01*
X81915000Y-3245000D02*
X81915000Y-4265000D01*
X81915000Y-10725000D02*
X81915000Y-9705000D01*
X83385000Y-5165000D02*
X80445000Y-5165000D01*
X83385000Y-5285000D02*
X80445000Y-5285000D01*
X83385000Y-5045000D02*
X80445000Y-5045000D01*
X64335000Y-18235000D02*
X61395000Y-18235000D01*
X61395000Y-18235000D02*
X61395000Y-23675000D01*
X61395000Y-23675000D02*
X64335000Y-23675000D01*
X64335000Y-23675000D02*
X64335000Y-18235000D01*
X62865000Y-17215000D02*
X62865000Y-18235000D01*
X62865000Y-24695000D02*
X62865000Y-23675000D01*
X64335000Y-19135000D02*
X61395000Y-19135000D01*
X64335000Y-19255000D02*
X61395000Y-19255000D01*
X64335000Y-19015000D02*
X61395000Y-19015000D01*
X61395000Y-36865000D02*
X64335000Y-36865000D01*
X61395000Y-36625000D02*
X64335000Y-36625000D01*
X61395000Y-36745000D02*
X64335000Y-36745000D01*
X62865000Y-31185000D02*
X62865000Y-32205000D01*
X62865000Y-38665000D02*
X62865000Y-37645000D01*
X61395000Y-32205000D02*
X61395000Y-37645000D01*
X64335000Y-32205000D02*
X61395000Y-32205000D01*
X64335000Y-37645000D02*
X64335000Y-32205000D01*
X61395000Y-37645000D02*
X64335000Y-37645000D01*
X64335000Y-4265000D02*
X61395000Y-4265000D01*
X61395000Y-4265000D02*
X61395000Y-9705000D01*
X61395000Y-9705000D02*
X64335000Y-9705000D01*
X64335000Y-9705000D02*
X64335000Y-4265000D01*
X62865000Y-3245000D02*
X62865000Y-4265000D01*
X62865000Y-10725000D02*
X62865000Y-9705000D01*
X64335000Y-5165000D02*
X61395000Y-5165000D01*
X64335000Y-5285000D02*
X61395000Y-5285000D01*
X64335000Y-5045000D02*
X61395000Y-5045000D01*
D11*
X50522142Y-7151666D02*
X50569761Y-7199285D01*
X50617380Y-7342142D01*
X50617380Y-7437380D01*
X50569761Y-7580238D01*
X50474523Y-7675476D01*
X50379285Y-7723095D01*
X50188809Y-7770714D01*
X50045952Y-7770714D01*
X49855476Y-7723095D01*
X49760238Y-7675476D01*
X49665000Y-7580238D01*
X49617380Y-7437380D01*
X49617380Y-7342142D01*
X49665000Y-7199285D01*
X49712619Y-7151666D01*
X50617380Y-6199285D02*
X50617380Y-6770714D01*
X50617380Y-6485000D02*
X49617380Y-6485000D01*
X49760238Y-6580238D01*
X49855476Y-6675476D01*
X49903095Y-6770714D01*
X50522142Y-27471666D02*
X50569761Y-27519285D01*
X50617380Y-27662142D01*
X50617380Y-27757380D01*
X50569761Y-27900238D01*
X50474523Y-27995476D01*
X50379285Y-28043095D01*
X50188809Y-28090714D01*
X50045952Y-28090714D01*
X49855476Y-28043095D01*
X49760238Y-27995476D01*
X49665000Y-27900238D01*
X49617380Y-27757380D01*
X49617380Y-27662142D01*
X49665000Y-27519285D01*
X49712619Y-27471666D01*
X49712619Y-27090714D02*
X49665000Y-27043095D01*
X49617380Y-26947857D01*
X49617380Y-26709761D01*
X49665000Y-26614523D01*
X49712619Y-26566904D01*
X49807857Y-26519285D01*
X49903095Y-26519285D01*
X50045952Y-26566904D01*
X50617380Y-27138333D01*
X50617380Y-26519285D01*
X30297380Y-11914095D02*
X29297380Y-11914095D01*
X29297380Y-11676000D01*
X29345000Y-11533142D01*
X29440238Y-11437904D01*
X29535476Y-11390285D01*
X29725952Y-11342666D01*
X29868809Y-11342666D01*
X30059285Y-11390285D01*
X30154523Y-11437904D01*
X30249761Y-11533142D01*
X30297380Y-11676000D01*
X30297380Y-11914095D01*
X30297380Y-10390285D02*
X30297380Y-10961714D01*
X30297380Y-10676000D02*
X29297380Y-10676000D01*
X29440238Y-10771238D01*
X29535476Y-10866476D01*
X29583095Y-10961714D01*
X30297380Y-32234095D02*
X29297380Y-32234095D01*
X29297380Y-31996000D01*
X29345000Y-31853142D01*
X29440238Y-31757904D01*
X29535476Y-31710285D01*
X29725952Y-31662666D01*
X29868809Y-31662666D01*
X30059285Y-31710285D01*
X30154523Y-31757904D01*
X30249761Y-31853142D01*
X30297380Y-31996000D01*
X30297380Y-32234095D01*
X29392619Y-31281714D02*
X29345000Y-31234095D01*
X29297380Y-31138857D01*
X29297380Y-30900761D01*
X29345000Y-30805523D01*
X29392619Y-30757904D01*
X29487857Y-30710285D01*
X29583095Y-30710285D01*
X29725952Y-30757904D01*
X30297380Y-31329333D01*
X30297380Y-30710285D01*
X90860714Y-23058380D02*
X90860714Y-22058380D01*
X91098809Y-22058380D01*
X91241666Y-22106000D01*
X91336904Y-22201238D01*
X91384523Y-22296476D01*
X91432142Y-22486952D01*
X91432142Y-22629809D01*
X91384523Y-22820285D01*
X91336904Y-22915523D01*
X91241666Y-23010761D01*
X91098809Y-23058380D01*
X90860714Y-23058380D01*
X92384523Y-23058380D02*
X91813095Y-23058380D01*
X92098809Y-23058380D02*
X92098809Y-22058380D01*
X92003571Y-22201238D01*
X91908333Y-22296476D01*
X91813095Y-22344095D01*
X93336904Y-23058380D02*
X92765476Y-23058380D01*
X93051190Y-23058380D02*
X93051190Y-22058380D01*
X92955952Y-22201238D01*
X92860714Y-22296476D01*
X92765476Y-22344095D01*
X90860714Y-37028380D02*
X90860714Y-36028380D01*
X91098809Y-36028380D01*
X91241666Y-36076000D01*
X91336904Y-36171238D01*
X91384523Y-36266476D01*
X91432142Y-36456952D01*
X91432142Y-36599809D01*
X91384523Y-36790285D01*
X91336904Y-36885523D01*
X91241666Y-36980761D01*
X91098809Y-37028380D01*
X90860714Y-37028380D01*
X92384523Y-37028380D02*
X91813095Y-37028380D01*
X92098809Y-37028380D02*
X92098809Y-36028380D01*
X92003571Y-36171238D01*
X91908333Y-36266476D01*
X91813095Y-36314095D01*
X92765476Y-36123619D02*
X92813095Y-36076000D01*
X92908333Y-36028380D01*
X93146428Y-36028380D01*
X93241666Y-36076000D01*
X93289285Y-36123619D01*
X93336904Y-36218857D01*
X93336904Y-36314095D01*
X93289285Y-36456952D01*
X92717857Y-37028380D01*
X93336904Y-37028380D01*
X90860714Y-9088380D02*
X90860714Y-8088380D01*
X91098809Y-8088380D01*
X91241666Y-8136000D01*
X91336904Y-8231238D01*
X91384523Y-8326476D01*
X91432142Y-8516952D01*
X91432142Y-8659809D01*
X91384523Y-8850285D01*
X91336904Y-8945523D01*
X91241666Y-9040761D01*
X91098809Y-9088380D01*
X90860714Y-9088380D01*
X92384523Y-9088380D02*
X91813095Y-9088380D01*
X92098809Y-9088380D02*
X92098809Y-8088380D01*
X92003571Y-8231238D01*
X91908333Y-8326476D01*
X91813095Y-8374095D01*
X92717857Y-8088380D02*
X93336904Y-8088380D01*
X93003571Y-8469333D01*
X93146428Y-8469333D01*
X93241666Y-8516952D01*
X93289285Y-8564571D01*
X93336904Y-8659809D01*
X93336904Y-8897904D01*
X93289285Y-8993142D01*
X93241666Y-9040761D01*
X93146428Y-9088380D01*
X92860714Y-9088380D01*
X92765476Y-9040761D01*
X92717857Y-8993142D01*
X86812380Y-21121666D02*
X86336190Y-21455000D01*
X86812380Y-21693095D02*
X85812380Y-21693095D01*
X85812380Y-21312142D01*
X85860000Y-21216904D01*
X85907619Y-21169285D01*
X86002857Y-21121666D01*
X86145714Y-21121666D01*
X86240952Y-21169285D01*
X86288571Y-21216904D01*
X86336190Y-21312142D01*
X86336190Y-21693095D01*
X86812380Y-20169285D02*
X86812380Y-20740714D01*
X86812380Y-20455000D02*
X85812380Y-20455000D01*
X85955238Y-20550238D01*
X86050476Y-20645476D01*
X86098095Y-20740714D01*
X86812380Y-35091666D02*
X86336190Y-35425000D01*
X86812380Y-35663095D02*
X85812380Y-35663095D01*
X85812380Y-35282142D01*
X85860000Y-35186904D01*
X85907619Y-35139285D01*
X86002857Y-35091666D01*
X86145714Y-35091666D01*
X86240952Y-35139285D01*
X86288571Y-35186904D01*
X86336190Y-35282142D01*
X86336190Y-35663095D01*
X85907619Y-34710714D02*
X85860000Y-34663095D01*
X85812380Y-34567857D01*
X85812380Y-34329761D01*
X85860000Y-34234523D01*
X85907619Y-34186904D01*
X86002857Y-34139285D01*
X86098095Y-34139285D01*
X86240952Y-34186904D01*
X86812380Y-34758333D01*
X86812380Y-34139285D01*
X86812380Y-7151666D02*
X86336190Y-7485000D01*
X86812380Y-7723095D02*
X85812380Y-7723095D01*
X85812380Y-7342142D01*
X85860000Y-7246904D01*
X85907619Y-7199285D01*
X86002857Y-7151666D01*
X86145714Y-7151666D01*
X86240952Y-7199285D01*
X86288571Y-7246904D01*
X86336190Y-7342142D01*
X86336190Y-7723095D01*
X85812380Y-6818333D02*
X85812380Y-6199285D01*
X86193333Y-6532619D01*
X86193333Y-6389761D01*
X86240952Y-6294523D01*
X86288571Y-6246904D01*
X86383809Y-6199285D01*
X86621904Y-6199285D01*
X86717142Y-6246904D01*
X86764761Y-6294523D01*
X86812380Y-6389761D01*
X86812380Y-6675476D01*
X86764761Y-6770714D01*
X86717142Y-6818333D01*
X69302380Y-21716904D02*
X70111904Y-21716904D01*
X70207142Y-21669285D01*
X70254761Y-21621666D01*
X70302380Y-21526428D01*
X70302380Y-21335952D01*
X70254761Y-21240714D01*
X70207142Y-21193095D01*
X70111904Y-21145476D01*
X69302380Y-21145476D01*
X70302380Y-20145476D02*
X70302380Y-20716904D01*
X70302380Y-20431190D02*
X69302380Y-20431190D01*
X69445238Y-20526428D01*
X69540476Y-20621666D01*
X69588095Y-20716904D01*
X69302380Y-35686904D02*
X70111904Y-35686904D01*
X70207142Y-35639285D01*
X70254761Y-35591666D01*
X70302380Y-35496428D01*
X70302380Y-35305952D01*
X70254761Y-35210714D01*
X70207142Y-35163095D01*
X70111904Y-35115476D01*
X69302380Y-35115476D01*
X69397619Y-34686904D02*
X69350000Y-34639285D01*
X69302380Y-34544047D01*
X69302380Y-34305952D01*
X69350000Y-34210714D01*
X69397619Y-34163095D01*
X69492857Y-34115476D01*
X69588095Y-34115476D01*
X69730952Y-34163095D01*
X70302380Y-34734523D01*
X70302380Y-34115476D01*
X69302380Y-7746904D02*
X70111904Y-7746904D01*
X70207142Y-7699285D01*
X70254761Y-7651666D01*
X70302380Y-7556428D01*
X70302380Y-7365952D01*
X70254761Y-7270714D01*
X70207142Y-7223095D01*
X70111904Y-7175476D01*
X69302380Y-7175476D01*
X69302380Y-6794523D02*
X69302380Y-6175476D01*
X69683333Y-6508809D01*
X69683333Y-6365952D01*
X69730952Y-6270714D01*
X69778571Y-6223095D01*
X69873809Y-6175476D01*
X70111904Y-6175476D01*
X70207142Y-6223095D01*
X70254761Y-6270714D01*
X70302380Y-6365952D01*
X70302380Y-6651666D01*
X70254761Y-6746904D01*
X70207142Y-6794523D01*
X58777142Y-21121666D02*
X58824761Y-21169285D01*
X58872380Y-21312142D01*
X58872380Y-21407380D01*
X58824761Y-21550238D01*
X58729523Y-21645476D01*
X58634285Y-21693095D01*
X58443809Y-21740714D01*
X58300952Y-21740714D01*
X58110476Y-21693095D01*
X58015238Y-21645476D01*
X57920000Y-21550238D01*
X57872380Y-21407380D01*
X57872380Y-21312142D01*
X57920000Y-21169285D01*
X57967619Y-21121666D01*
X57872380Y-20788333D02*
X57872380Y-20169285D01*
X58253333Y-20502619D01*
X58253333Y-20359761D01*
X58300952Y-20264523D01*
X58348571Y-20216904D01*
X58443809Y-20169285D01*
X58681904Y-20169285D01*
X58777142Y-20216904D01*
X58824761Y-20264523D01*
X58872380Y-20359761D01*
X58872380Y-20645476D01*
X58824761Y-20740714D01*
X58777142Y-20788333D01*
X58777142Y-35091666D02*
X58824761Y-35139285D01*
X58872380Y-35282142D01*
X58872380Y-35377380D01*
X58824761Y-35520238D01*
X58729523Y-35615476D01*
X58634285Y-35663095D01*
X58443809Y-35710714D01*
X58300952Y-35710714D01*
X58110476Y-35663095D01*
X58015238Y-35615476D01*
X57920000Y-35520238D01*
X57872380Y-35377380D01*
X57872380Y-35282142D01*
X57920000Y-35139285D01*
X57967619Y-35091666D01*
X58205714Y-34234523D02*
X58872380Y-34234523D01*
X57824761Y-34472619D02*
X58539047Y-34710714D01*
X58539047Y-34091666D01*
X58777142Y-7151666D02*
X58824761Y-7199285D01*
X58872380Y-7342142D01*
X58872380Y-7437380D01*
X58824761Y-7580238D01*
X58729523Y-7675476D01*
X58634285Y-7723095D01*
X58443809Y-7770714D01*
X58300952Y-7770714D01*
X58110476Y-7723095D01*
X58015238Y-7675476D01*
X57920000Y-7580238D01*
X57872380Y-7437380D01*
X57872380Y-7342142D01*
X57920000Y-7199285D01*
X57967619Y-7151666D01*
X57872380Y-6246904D02*
X57872380Y-6723095D01*
X58348571Y-6770714D01*
X58300952Y-6723095D01*
X58253333Y-6627857D01*
X58253333Y-6389761D01*
X58300952Y-6294523D01*
X58348571Y-6246904D01*
X58443809Y-6199285D01*
X58681904Y-6199285D01*
X58777142Y-6246904D01*
X58824761Y-6294523D01*
X58872380Y-6389761D01*
X58872380Y-6627857D01*
X58824761Y-6723095D01*
X58777142Y-6770714D01*
X77827142Y-21121666D02*
X77874761Y-21169285D01*
X77922380Y-21312142D01*
X77922380Y-21407380D01*
X77874761Y-21550238D01*
X77779523Y-21645476D01*
X77684285Y-21693095D01*
X77493809Y-21740714D01*
X77350952Y-21740714D01*
X77160476Y-21693095D01*
X77065238Y-21645476D01*
X76970000Y-21550238D01*
X76922380Y-21407380D01*
X76922380Y-21312142D01*
X76970000Y-21169285D01*
X77017619Y-21121666D01*
X76922380Y-20264523D02*
X76922380Y-20455000D01*
X76970000Y-20550238D01*
X77017619Y-20597857D01*
X77160476Y-20693095D01*
X77350952Y-20740714D01*
X77731904Y-20740714D01*
X77827142Y-20693095D01*
X77874761Y-20645476D01*
X77922380Y-20550238D01*
X77922380Y-20359761D01*
X77874761Y-20264523D01*
X77827142Y-20216904D01*
X77731904Y-20169285D01*
X77493809Y-20169285D01*
X77398571Y-20216904D01*
X77350952Y-20264523D01*
X77303333Y-20359761D01*
X77303333Y-20550238D01*
X77350952Y-20645476D01*
X77398571Y-20693095D01*
X77493809Y-20740714D01*
X77827142Y-35091666D02*
X77874761Y-35139285D01*
X77922380Y-35282142D01*
X77922380Y-35377380D01*
X77874761Y-35520238D01*
X77779523Y-35615476D01*
X77684285Y-35663095D01*
X77493809Y-35710714D01*
X77350952Y-35710714D01*
X77160476Y-35663095D01*
X77065238Y-35615476D01*
X76970000Y-35520238D01*
X76922380Y-35377380D01*
X76922380Y-35282142D01*
X76970000Y-35139285D01*
X77017619Y-35091666D01*
X76922380Y-34758333D02*
X76922380Y-34091666D01*
X77922380Y-34520238D01*
X77827142Y-7151666D02*
X77874761Y-7199285D01*
X77922380Y-7342142D01*
X77922380Y-7437380D01*
X77874761Y-7580238D01*
X77779523Y-7675476D01*
X77684285Y-7723095D01*
X77493809Y-7770714D01*
X77350952Y-7770714D01*
X77160476Y-7723095D01*
X77065238Y-7675476D01*
X76970000Y-7580238D01*
X76922380Y-7437380D01*
X76922380Y-7342142D01*
X76970000Y-7199285D01*
X77017619Y-7151666D01*
X77350952Y-6580238D02*
X77303333Y-6675476D01*
X77255714Y-6723095D01*
X77160476Y-6770714D01*
X77112857Y-6770714D01*
X77017619Y-6723095D01*
X76970000Y-6675476D01*
X76922380Y-6580238D01*
X76922380Y-6389761D01*
X76970000Y-6294523D01*
X77017619Y-6246904D01*
X77112857Y-6199285D01*
X77160476Y-6199285D01*
X77255714Y-6246904D01*
X77303333Y-6294523D01*
X77350952Y-6389761D01*
X77350952Y-6580238D01*
X77398571Y-6675476D01*
X77446190Y-6723095D01*
X77541428Y-6770714D01*
X77731904Y-6770714D01*
X77827142Y-6723095D01*
X77874761Y-6675476D01*
X77922380Y-6580238D01*
X77922380Y-6389761D01*
X77874761Y-6294523D01*
X77827142Y-6246904D01*
X77731904Y-6199285D01*
X77541428Y-6199285D01*
X77446190Y-6246904D01*
X77398571Y-6294523D01*
X77350952Y-6389761D01*
X34742380Y-11914095D02*
X33742380Y-11914095D01*
X33742380Y-11676000D01*
X33790000Y-11533142D01*
X33885238Y-11437904D01*
X33980476Y-11390285D01*
X34170952Y-11342666D01*
X34313809Y-11342666D01*
X34504285Y-11390285D01*
X34599523Y-11437904D01*
X34694761Y-11533142D01*
X34742380Y-11676000D01*
X34742380Y-11914095D01*
X33742380Y-11009333D02*
X33742380Y-10390285D01*
X34123333Y-10723619D01*
X34123333Y-10580761D01*
X34170952Y-10485523D01*
X34218571Y-10437904D01*
X34313809Y-10390285D01*
X34551904Y-10390285D01*
X34647142Y-10437904D01*
X34694761Y-10485523D01*
X34742380Y-10580761D01*
X34742380Y-10866476D01*
X34694761Y-10961714D01*
X34647142Y-11009333D01*
X34742380Y-32234095D02*
X33742380Y-32234095D01*
X33742380Y-31996000D01*
X33790000Y-31853142D01*
X33885238Y-31757904D01*
X33980476Y-31710285D01*
X34170952Y-31662666D01*
X34313809Y-31662666D01*
X34504285Y-31710285D01*
X34599523Y-31757904D01*
X34694761Y-31853142D01*
X34742380Y-31996000D01*
X34742380Y-32234095D01*
X34075714Y-30805523D02*
X34742380Y-30805523D01*
X33694761Y-31043619D02*
X34409047Y-31281714D01*
X34409047Y-30662666D01*
X82367380Y-22074095D02*
X81367380Y-22074095D01*
X81367380Y-21836000D01*
X81415000Y-21693142D01*
X81510238Y-21597904D01*
X81605476Y-21550285D01*
X81795952Y-21502666D01*
X81938809Y-21502666D01*
X82129285Y-21550285D01*
X82224523Y-21597904D01*
X82319761Y-21693142D01*
X82367380Y-21836000D01*
X82367380Y-22074095D01*
X81795952Y-20931238D02*
X81748333Y-21026476D01*
X81700714Y-21074095D01*
X81605476Y-21121714D01*
X81557857Y-21121714D01*
X81462619Y-21074095D01*
X81415000Y-21026476D01*
X81367380Y-20931238D01*
X81367380Y-20740761D01*
X81415000Y-20645523D01*
X81462619Y-20597904D01*
X81557857Y-20550285D01*
X81605476Y-20550285D01*
X81700714Y-20597904D01*
X81748333Y-20645523D01*
X81795952Y-20740761D01*
X81795952Y-20931238D01*
X81843571Y-21026476D01*
X81891190Y-21074095D01*
X81986428Y-21121714D01*
X82176904Y-21121714D01*
X82272142Y-21074095D01*
X82319761Y-21026476D01*
X82367380Y-20931238D01*
X82367380Y-20740761D01*
X82319761Y-20645523D01*
X82272142Y-20597904D01*
X82176904Y-20550285D01*
X81986428Y-20550285D01*
X81891190Y-20597904D01*
X81843571Y-20645523D01*
X81795952Y-20740761D01*
X82367380Y-36044095D02*
X81367380Y-36044095D01*
X81367380Y-35806000D01*
X81415000Y-35663142D01*
X81510238Y-35567904D01*
X81605476Y-35520285D01*
X81795952Y-35472666D01*
X81938809Y-35472666D01*
X82129285Y-35520285D01*
X82224523Y-35567904D01*
X82319761Y-35663142D01*
X82367380Y-35806000D01*
X82367380Y-36044095D01*
X82367380Y-34996476D02*
X82367380Y-34806000D01*
X82319761Y-34710761D01*
X82272142Y-34663142D01*
X82129285Y-34567904D01*
X81938809Y-34520285D01*
X81557857Y-34520285D01*
X81462619Y-34567904D01*
X81415000Y-34615523D01*
X81367380Y-34710761D01*
X81367380Y-34901238D01*
X81415000Y-34996476D01*
X81462619Y-35044095D01*
X81557857Y-35091714D01*
X81795952Y-35091714D01*
X81891190Y-35044095D01*
X81938809Y-34996476D01*
X81986428Y-34901238D01*
X81986428Y-34710761D01*
X81938809Y-34615523D01*
X81891190Y-34567904D01*
X81795952Y-34520285D01*
X82367380Y-8580285D02*
X81367380Y-8580285D01*
X81367380Y-8342190D01*
X81415000Y-8199333D01*
X81510238Y-8104095D01*
X81605476Y-8056476D01*
X81795952Y-8008857D01*
X81938809Y-8008857D01*
X82129285Y-8056476D01*
X82224523Y-8104095D01*
X82319761Y-8199333D01*
X82367380Y-8342190D01*
X82367380Y-8580285D01*
X82367380Y-7056476D02*
X82367380Y-7627904D01*
X82367380Y-7342190D02*
X81367380Y-7342190D01*
X81510238Y-7437428D01*
X81605476Y-7532666D01*
X81653095Y-7627904D01*
X81367380Y-6437428D02*
X81367380Y-6342190D01*
X81415000Y-6246952D01*
X81462619Y-6199333D01*
X81557857Y-6151714D01*
X81748333Y-6104095D01*
X81986428Y-6104095D01*
X82176904Y-6151714D01*
X82272142Y-6199333D01*
X82319761Y-6246952D01*
X82367380Y-6342190D01*
X82367380Y-6437428D01*
X82319761Y-6532666D01*
X82272142Y-6580285D01*
X82176904Y-6627904D01*
X81986428Y-6675523D01*
X81748333Y-6675523D01*
X81557857Y-6627904D01*
X81462619Y-6580285D01*
X81415000Y-6532666D01*
X81367380Y-6437428D01*
X63317380Y-22096094D02*
X62317380Y-22096094D01*
X62317380Y-21857999D01*
X62365000Y-21715141D01*
X62460238Y-21619903D01*
X62555476Y-21572284D01*
X62745952Y-21524665D01*
X62888809Y-21524665D01*
X63079285Y-21572284D01*
X63174523Y-21619903D01*
X63269761Y-21715141D01*
X63317380Y-21857999D01*
X63317380Y-22096094D01*
X62317380Y-20619903D02*
X62317380Y-21096094D01*
X62793571Y-21143713D01*
X62745952Y-21096094D01*
X62698333Y-21000856D01*
X62698333Y-20762760D01*
X62745952Y-20667522D01*
X62793571Y-20619903D01*
X62888809Y-20572284D01*
X63126904Y-20572284D01*
X63222142Y-20619903D01*
X63269761Y-20667522D01*
X63317380Y-20762760D01*
X63317380Y-21000856D01*
X63269761Y-21096094D01*
X63222142Y-21143713D01*
X63317380Y-35260096D02*
X62317380Y-35260096D01*
X62317380Y-35022001D01*
X62365000Y-34879143D01*
X62460238Y-34783905D01*
X62555476Y-34736286D01*
X62745952Y-34688667D01*
X62888809Y-34688667D01*
X63079285Y-34736286D01*
X63174523Y-34783905D01*
X63269761Y-34879143D01*
X63317380Y-35022001D01*
X63317380Y-35260096D01*
X62317380Y-33831524D02*
X62317380Y-34022001D01*
X62365000Y-34117239D01*
X62412619Y-34164858D01*
X62555476Y-34260096D01*
X62745952Y-34307715D01*
X63126904Y-34307715D01*
X63222142Y-34260096D01*
X63269761Y-34212477D01*
X63317380Y-34117239D01*
X63317380Y-33926762D01*
X63269761Y-33831524D01*
X63222142Y-33783905D01*
X63126904Y-33736286D01*
X62888809Y-33736286D01*
X62793571Y-33783905D01*
X62745952Y-33831524D01*
X62698333Y-33926762D01*
X62698333Y-34117239D01*
X62745952Y-34212477D01*
X62793571Y-34260096D01*
X62888809Y-34307715D01*
X63317380Y-8104095D02*
X62317380Y-8104095D01*
X62317380Y-7866000D01*
X62365000Y-7723142D01*
X62460238Y-7627904D01*
X62555476Y-7580285D01*
X62745952Y-7532666D01*
X62888809Y-7532666D01*
X63079285Y-7580285D01*
X63174523Y-7627904D01*
X63269761Y-7723142D01*
X63317380Y-7866000D01*
X63317380Y-8104095D01*
X62317380Y-7199333D02*
X62317380Y-6532666D01*
X63317380Y-6961238D01*
M02*
