G04 #@! TF.GenerationSoftware,KiCad,Pcbnew,5.1.7-a382d34a8~87~ubuntu16.04.1*
G04 #@! TF.CreationDate,2021-01-02T19:07:06+01:00*
G04 #@! TF.ProjectId,basic-bipolar-input-eurorack-power-supply,62617369-632d-4626-9970-6f6c61722d69,rev?*
G04 #@! TF.SameCoordinates,Original*
G04 #@! TF.FileFunction,Copper,L1,Top*
G04 #@! TF.FilePolarity,Positive*
%FSLAX46Y46*%
G04 Gerber Fmt 4.6, Leading zero omitted, Abs format (unit mm)*
G04 Created by KiCad (PCBNEW 5.1.7-a382d34a8~87~ubuntu16.04.1) date 2021-01-02 19:07:06*
%MOMM*%
%LPD*%
G01*
G04 APERTURE LIST*
G04 #@! TA.AperFunction,EtchedComponent*
%ADD10C,0.010000*%
G04 #@! TD*
G04 #@! TA.AperFunction,ComponentPad*
%ADD11O,2.400000X2.400000*%
G04 #@! TD*
G04 #@! TA.AperFunction,ComponentPad*
%ADD12O,1.700000X1.700000*%
G04 #@! TD*
G04 #@! TA.AperFunction,ComponentPad*
%ADD13R,2.400000X2.400000*%
G04 #@! TD*
G04 #@! TA.AperFunction,ComponentPad*
%ADD14C,2.400000*%
G04 #@! TD*
G04 #@! TA.AperFunction,ComponentPad*
%ADD15O,2.200000X2.200000*%
G04 #@! TD*
G04 #@! TA.AperFunction,ComponentPad*
%ADD16R,2.200000X2.200000*%
G04 #@! TD*
G04 #@! TA.AperFunction,ComponentPad*
%ADD17R,1.800000X1.800000*%
G04 #@! TD*
G04 #@! TA.AperFunction,ComponentPad*
%ADD18C,1.800000*%
G04 #@! TD*
G04 #@! TA.AperFunction,ComponentPad*
%ADD19O,1.600000X1.600000*%
G04 #@! TD*
G04 #@! TA.AperFunction,ComponentPad*
%ADD20C,1.600000*%
G04 #@! TD*
G04 #@! TA.AperFunction,ComponentPad*
%ADD21R,2.000000X1.905000*%
G04 #@! TD*
G04 #@! TA.AperFunction,ComponentPad*
%ADD22O,2.000000X1.905000*%
G04 #@! TD*
G04 #@! TA.AperFunction,ComponentPad*
%ADD23R,1.600000X1.600000*%
G04 #@! TD*
G04 #@! TA.AperFunction,ViaPad*
%ADD24C,3.600000*%
G04 #@! TD*
G04 #@! TA.AperFunction,Conductor*
%ADD25C,1.750000*%
G04 #@! TD*
G04 APERTURE END LIST*
D10*
G36*
X109713349Y-839569D02*
G01*
X109838983Y-851313D01*
X109968376Y-870482D01*
X110099949Y-896970D01*
X110232121Y-930670D01*
X110243815Y-934002D01*
X110356468Y-969404D01*
X110459327Y-1008300D01*
X110556582Y-1052297D01*
X110571138Y-1059532D01*
X110634811Y-1093416D01*
X110688532Y-1126506D01*
X110736043Y-1161416D01*
X110781085Y-1200758D01*
X110801122Y-1220182D01*
X110832793Y-1253167D01*
X110856378Y-1281662D01*
X110874984Y-1309768D01*
X110889316Y-1336642D01*
X110901147Y-1361217D01*
X110908987Y-1380283D01*
X110913658Y-1397938D01*
X110915981Y-1418281D01*
X110916775Y-1445411D01*
X110916861Y-1474226D01*
X110916609Y-1510313D01*
X110915404Y-1536246D01*
X110912569Y-1555982D01*
X110907428Y-1573476D01*
X110899306Y-1592683D01*
X110895060Y-1601752D01*
X110878673Y-1630900D01*
X110856829Y-1662771D01*
X110834704Y-1689946D01*
X110796149Y-1732138D01*
X110687969Y-2277733D01*
X110666333Y-2386479D01*
X110647157Y-2482034D01*
X110630293Y-2565077D01*
X110615595Y-2636286D01*
X110602918Y-2696339D01*
X110592114Y-2745914D01*
X110583037Y-2785690D01*
X110575540Y-2816343D01*
X110569477Y-2838553D01*
X110564702Y-2852998D01*
X110562713Y-2857597D01*
X110536758Y-2896303D01*
X110501377Y-2930466D01*
X110461256Y-2955631D01*
X110458006Y-2957112D01*
X110447596Y-2961663D01*
X110437651Y-2965573D01*
X110427339Y-2968717D01*
X110415825Y-2970971D01*
X110402274Y-2972212D01*
X110385852Y-2972316D01*
X110365724Y-2971159D01*
X110341057Y-2968618D01*
X110311016Y-2964568D01*
X110274766Y-2958886D01*
X110231474Y-2951448D01*
X110180305Y-2942130D01*
X110120424Y-2930809D01*
X110050997Y-2917360D01*
X109971190Y-2901660D01*
X109880169Y-2883585D01*
X109777098Y-2863012D01*
X109661145Y-2839816D01*
X109643333Y-2836252D01*
X109509114Y-2809306D01*
X109388657Y-2784938D01*
X109281855Y-2763125D01*
X109188601Y-2743845D01*
X109108787Y-2727074D01*
X109042307Y-2712790D01*
X108989053Y-2700970D01*
X108948917Y-2691591D01*
X108921793Y-2684631D01*
X108907573Y-2680066D01*
X108907047Y-2679831D01*
X108865827Y-2653240D01*
X108831447Y-2616403D01*
X108805789Y-2572286D01*
X108790738Y-2523853D01*
X108787536Y-2491592D01*
X108788826Y-2479586D01*
X108792694Y-2454877D01*
X108798927Y-2418595D01*
X108807315Y-2371869D01*
X108817648Y-2315828D01*
X108819344Y-2306797D01*
X109260210Y-2306797D01*
X109262624Y-2309429D01*
X109271021Y-2312963D01*
X109286208Y-2317580D01*
X109308990Y-2323458D01*
X109340175Y-2330776D01*
X109380570Y-2339716D01*
X109430980Y-2350455D01*
X109492212Y-2363174D01*
X109565074Y-2378052D01*
X109650372Y-2395269D01*
X109724472Y-2410120D01*
X109803509Y-2425920D01*
X109878463Y-2440898D01*
X109948190Y-2454825D01*
X110011544Y-2467474D01*
X110067381Y-2478614D01*
X110114556Y-2488019D01*
X110151925Y-2495460D01*
X110178343Y-2500709D01*
X110192666Y-2503537D01*
X110194955Y-2503975D01*
X110200679Y-2498914D01*
X110203403Y-2492375D01*
X110205357Y-2483540D01*
X110209827Y-2462011D01*
X110216580Y-2428936D01*
X110225387Y-2385463D01*
X110236016Y-2332739D01*
X110248236Y-2271911D01*
X110261816Y-2204128D01*
X110276525Y-2130536D01*
X110292132Y-2052284D01*
X110303074Y-1997328D01*
X110319279Y-1916321D01*
X110334913Y-1839021D01*
X110349729Y-1766600D01*
X110363478Y-1700228D01*
X110375913Y-1641078D01*
X110386786Y-1590321D01*
X110395851Y-1549127D01*
X110402858Y-1518668D01*
X110407561Y-1500115D01*
X110409278Y-1494970D01*
X110416395Y-1480118D01*
X110419442Y-1471596D01*
X110419444Y-1471522D01*
X110413310Y-1465979D01*
X110396544Y-1456319D01*
X110371602Y-1443703D01*
X110340940Y-1429291D01*
X110307014Y-1414243D01*
X110272279Y-1399720D01*
X110244418Y-1388829D01*
X110124437Y-1349187D01*
X109996038Y-1316761D01*
X109863340Y-1292293D01*
X109730463Y-1276522D01*
X109601525Y-1270187D01*
X109583404Y-1270096D01*
X109536588Y-1270257D01*
X109502076Y-1270919D01*
X109478061Y-1272498D01*
X109462736Y-1275406D01*
X109454293Y-1280061D01*
X109450926Y-1286875D01*
X109450827Y-1296264D01*
X109451252Y-1300425D01*
X109450332Y-1310974D01*
X109446852Y-1334186D01*
X109441028Y-1368887D01*
X109433075Y-1413905D01*
X109423209Y-1468066D01*
X109411644Y-1530197D01*
X109398598Y-1599125D01*
X109384284Y-1673678D01*
X109368918Y-1752682D01*
X109357702Y-1809750D01*
X109341716Y-1890789D01*
X109326522Y-1967893D01*
X109312344Y-2039926D01*
X109299404Y-2105752D01*
X109287925Y-2164235D01*
X109278131Y-2214238D01*
X109270243Y-2254627D01*
X109264485Y-2284264D01*
X109261080Y-2302013D01*
X109260210Y-2306797D01*
X108819344Y-2306797D01*
X108829713Y-2251602D01*
X108843301Y-2180322D01*
X108858201Y-2103116D01*
X108874202Y-2021115D01*
X108891092Y-1935448D01*
X108895150Y-1914994D01*
X109003186Y-1371128D01*
X108984526Y-1324484D01*
X108965718Y-1260547D01*
X108960444Y-1198106D01*
X108968140Y-1138030D01*
X108988242Y-1081189D01*
X109020186Y-1028450D01*
X109063409Y-980684D01*
X109117347Y-938759D01*
X109181437Y-903545D01*
X109255114Y-875910D01*
X109279972Y-868977D01*
X109374784Y-849954D01*
X109479670Y-838783D01*
X109593051Y-835357D01*
X109713349Y-839569D01*
G37*
X109713349Y-839569D02*
X109838983Y-851313D01*
X109968376Y-870482D01*
X110099949Y-896970D01*
X110232121Y-930670D01*
X110243815Y-934002D01*
X110356468Y-969404D01*
X110459327Y-1008300D01*
X110556582Y-1052297D01*
X110571138Y-1059532D01*
X110634811Y-1093416D01*
X110688532Y-1126506D01*
X110736043Y-1161416D01*
X110781085Y-1200758D01*
X110801122Y-1220182D01*
X110832793Y-1253167D01*
X110856378Y-1281662D01*
X110874984Y-1309768D01*
X110889316Y-1336642D01*
X110901147Y-1361217D01*
X110908987Y-1380283D01*
X110913658Y-1397938D01*
X110915981Y-1418281D01*
X110916775Y-1445411D01*
X110916861Y-1474226D01*
X110916609Y-1510313D01*
X110915404Y-1536246D01*
X110912569Y-1555982D01*
X110907428Y-1573476D01*
X110899306Y-1592683D01*
X110895060Y-1601752D01*
X110878673Y-1630900D01*
X110856829Y-1662771D01*
X110834704Y-1689946D01*
X110796149Y-1732138D01*
X110687969Y-2277733D01*
X110666333Y-2386479D01*
X110647157Y-2482034D01*
X110630293Y-2565077D01*
X110615595Y-2636286D01*
X110602918Y-2696339D01*
X110592114Y-2745914D01*
X110583037Y-2785690D01*
X110575540Y-2816343D01*
X110569477Y-2838553D01*
X110564702Y-2852998D01*
X110562713Y-2857597D01*
X110536758Y-2896303D01*
X110501377Y-2930466D01*
X110461256Y-2955631D01*
X110458006Y-2957112D01*
X110447596Y-2961663D01*
X110437651Y-2965573D01*
X110427339Y-2968717D01*
X110415825Y-2970971D01*
X110402274Y-2972212D01*
X110385852Y-2972316D01*
X110365724Y-2971159D01*
X110341057Y-2968618D01*
X110311016Y-2964568D01*
X110274766Y-2958886D01*
X110231474Y-2951448D01*
X110180305Y-2942130D01*
X110120424Y-2930809D01*
X110050997Y-2917360D01*
X109971190Y-2901660D01*
X109880169Y-2883585D01*
X109777098Y-2863012D01*
X109661145Y-2839816D01*
X109643333Y-2836252D01*
X109509114Y-2809306D01*
X109388657Y-2784938D01*
X109281855Y-2763125D01*
X109188601Y-2743845D01*
X109108787Y-2727074D01*
X109042307Y-2712790D01*
X108989053Y-2700970D01*
X108948917Y-2691591D01*
X108921793Y-2684631D01*
X108907573Y-2680066D01*
X108907047Y-2679831D01*
X108865827Y-2653240D01*
X108831447Y-2616403D01*
X108805789Y-2572286D01*
X108790738Y-2523853D01*
X108787536Y-2491592D01*
X108788826Y-2479586D01*
X108792694Y-2454877D01*
X108798927Y-2418595D01*
X108807315Y-2371869D01*
X108817648Y-2315828D01*
X108819344Y-2306797D01*
X109260210Y-2306797D01*
X109262624Y-2309429D01*
X109271021Y-2312963D01*
X109286208Y-2317580D01*
X109308990Y-2323458D01*
X109340175Y-2330776D01*
X109380570Y-2339716D01*
X109430980Y-2350455D01*
X109492212Y-2363174D01*
X109565074Y-2378052D01*
X109650372Y-2395269D01*
X109724472Y-2410120D01*
X109803509Y-2425920D01*
X109878463Y-2440898D01*
X109948190Y-2454825D01*
X110011544Y-2467474D01*
X110067381Y-2478614D01*
X110114556Y-2488019D01*
X110151925Y-2495460D01*
X110178343Y-2500709D01*
X110192666Y-2503537D01*
X110194955Y-2503975D01*
X110200679Y-2498914D01*
X110203403Y-2492375D01*
X110205357Y-2483540D01*
X110209827Y-2462011D01*
X110216580Y-2428936D01*
X110225387Y-2385463D01*
X110236016Y-2332739D01*
X110248236Y-2271911D01*
X110261816Y-2204128D01*
X110276525Y-2130536D01*
X110292132Y-2052284D01*
X110303074Y-1997328D01*
X110319279Y-1916321D01*
X110334913Y-1839021D01*
X110349729Y-1766600D01*
X110363478Y-1700228D01*
X110375913Y-1641078D01*
X110386786Y-1590321D01*
X110395851Y-1549127D01*
X110402858Y-1518668D01*
X110407561Y-1500115D01*
X110409278Y-1494970D01*
X110416395Y-1480118D01*
X110419442Y-1471596D01*
X110419444Y-1471522D01*
X110413310Y-1465979D01*
X110396544Y-1456319D01*
X110371602Y-1443703D01*
X110340940Y-1429291D01*
X110307014Y-1414243D01*
X110272279Y-1399720D01*
X110244418Y-1388829D01*
X110124437Y-1349187D01*
X109996038Y-1316761D01*
X109863340Y-1292293D01*
X109730463Y-1276522D01*
X109601525Y-1270187D01*
X109583404Y-1270096D01*
X109536588Y-1270257D01*
X109502076Y-1270919D01*
X109478061Y-1272498D01*
X109462736Y-1275406D01*
X109454293Y-1280061D01*
X109450926Y-1286875D01*
X109450827Y-1296264D01*
X109451252Y-1300425D01*
X109450332Y-1310974D01*
X109446852Y-1334186D01*
X109441028Y-1368887D01*
X109433075Y-1413905D01*
X109423209Y-1468066D01*
X109411644Y-1530197D01*
X109398598Y-1599125D01*
X109384284Y-1673678D01*
X109368918Y-1752682D01*
X109357702Y-1809750D01*
X109341716Y-1890789D01*
X109326522Y-1967893D01*
X109312344Y-2039926D01*
X109299404Y-2105752D01*
X109287925Y-2164235D01*
X109278131Y-2214238D01*
X109270243Y-2254627D01*
X109264485Y-2284264D01*
X109261080Y-2302013D01*
X109260210Y-2306797D01*
X108819344Y-2306797D01*
X108829713Y-2251602D01*
X108843301Y-2180322D01*
X108858201Y-2103116D01*
X108874202Y-2021115D01*
X108891092Y-1935448D01*
X108895150Y-1914994D01*
X109003186Y-1371128D01*
X108984526Y-1324484D01*
X108965718Y-1260547D01*
X108960444Y-1198106D01*
X108968140Y-1138030D01*
X108988242Y-1081189D01*
X109020186Y-1028450D01*
X109063409Y-980684D01*
X109117347Y-938759D01*
X109181437Y-903545D01*
X109255114Y-875910D01*
X109279972Y-868977D01*
X109374784Y-849954D01*
X109479670Y-838783D01*
X109593051Y-835357D01*
X109713349Y-839569D01*
D11*
X24130000Y-29845000D03*
D12*
X99060000Y-12065000D03*
X101600000Y-12065000D03*
X99060000Y-14605000D03*
X101600000Y-14605000D03*
X99060000Y-17145000D03*
X101600000Y-17145000D03*
X99060000Y-19685000D03*
X101600000Y-19685000D03*
X99060000Y-22225000D03*
X101600000Y-22225000D03*
X99060000Y-24765000D03*
X101600000Y-24765000D03*
X99060000Y-27305000D03*
X101600000Y-27305000D03*
X99060000Y-29845000D03*
X101600000Y-29845000D03*
D11*
X24130000Y-12065000D03*
D13*
X24130000Y-20955000D03*
D14*
X46355000Y-14605000D03*
D13*
X46355000Y-7105000D03*
X46355000Y-27305000D03*
D14*
X46355000Y-34805000D03*
D15*
X29845000Y-15875000D03*
D16*
X29845000Y-5715000D03*
X29845000Y-26035000D03*
D15*
X29845000Y-36195000D03*
D17*
X90805000Y-20955000D03*
D18*
X93345000Y-20955000D03*
D17*
X90805000Y-34925000D03*
D18*
X93345000Y-34925000D03*
X93345000Y-6985000D03*
D17*
X90805000Y-6985000D03*
D19*
X86360000Y-17145000D03*
D20*
X86360000Y-24765000D03*
X86360000Y-38735000D03*
D19*
X86360000Y-31115000D03*
D20*
X86360000Y-3175000D03*
D19*
X86360000Y-10795000D03*
D21*
X67310000Y-18415000D03*
D22*
X67310000Y-20955000D03*
X67310000Y-23495000D03*
D21*
X67310000Y-32385000D03*
D22*
X67310000Y-34925000D03*
X67310000Y-37465000D03*
X67310000Y-9525000D03*
X67310000Y-6985000D03*
D21*
X67310000Y-4445000D03*
D20*
X58420000Y-23415000D03*
D23*
X58420000Y-18415000D03*
X58420000Y-32385000D03*
D20*
X58420000Y-37385000D03*
D23*
X58420000Y-4445000D03*
D20*
X58420000Y-9445000D03*
X77470000Y-23415000D03*
D23*
X77470000Y-18415000D03*
X77470000Y-32385000D03*
D20*
X77470000Y-37385000D03*
X77470000Y-9445000D03*
D23*
X77470000Y-4445000D03*
D15*
X34290000Y-15875000D03*
D16*
X34290000Y-5715000D03*
X34290000Y-26035000D03*
D15*
X34290000Y-36195000D03*
D16*
X81915000Y-15875000D03*
D15*
X81915000Y-26035000D03*
X81915000Y-40005000D03*
D16*
X81915000Y-29845000D03*
X81915000Y-1905000D03*
D15*
X81915000Y-12065000D03*
D16*
X62865000Y-15875000D03*
D15*
X62865000Y-26035000D03*
X62865000Y-29845000D03*
D16*
X62865000Y-40005000D03*
X62865000Y-1905000D03*
D15*
X62865000Y-12065000D03*
D24*
X100330000Y-3175000D03*
X24130000Y-3175000D03*
X24130000Y-38735000D03*
X100330000Y-38735000D03*
D25*
X101600000Y-14605000D02*
X99060000Y-14605000D01*
X99060000Y-12065000D02*
X101600000Y-12065000D01*
X29845000Y-5715000D02*
X34290000Y-5715000D01*
X49015000Y-4445000D02*
X46355000Y-7105000D01*
X58420000Y-4445000D02*
X49015000Y-4445000D01*
X35680000Y-7105000D02*
X34290000Y-5715000D01*
X46355000Y-7105000D02*
X35680000Y-7105000D01*
X46355000Y-7105000D02*
X46475000Y-7105000D01*
X58420000Y-18415000D02*
X55880000Y-18415000D01*
X55880000Y-18415000D02*
X46355000Y-8890000D01*
X46355000Y-8890000D02*
X46355000Y-7105000D01*
X60325000Y-4445000D02*
X62865000Y-1905000D01*
X58420000Y-4445000D02*
X60325000Y-4445000D01*
X60325000Y-18415000D02*
X62865000Y-15875000D01*
X58420000Y-18415000D02*
X60325000Y-18415000D01*
X65405000Y-18415000D02*
X62865000Y-15875000D01*
X67310000Y-18415000D02*
X65405000Y-18415000D01*
X65405000Y-4445000D02*
X62865000Y-1905000D01*
X67310000Y-4445000D02*
X65405000Y-4445000D01*
X29845000Y-36195000D02*
X34290000Y-36195000D01*
X48935000Y-37385000D02*
X46355000Y-34805000D01*
X58420000Y-37385000D02*
X48935000Y-37385000D01*
X35680000Y-34805000D02*
X34290000Y-36195000D01*
X46355000Y-34805000D02*
X35680000Y-34805000D01*
X58420000Y-37385000D02*
X60325000Y-37385000D01*
X62865000Y-34845000D02*
X62865000Y-29845000D01*
X60325000Y-37385000D02*
X62865000Y-34845000D01*
X62945000Y-34925000D02*
X62865000Y-34845000D01*
X67310000Y-34925000D02*
X62945000Y-34925000D01*
X99060000Y-19685000D02*
X97857919Y-19685000D01*
X97857919Y-19685000D02*
X95317919Y-17145000D01*
X101600000Y-19685000D02*
X99060000Y-19685000D01*
X77470000Y-18415000D02*
X72390000Y-23495000D01*
X80010000Y-15875000D02*
X77470000Y-18415000D01*
X81915000Y-15875000D02*
X80010000Y-15875000D01*
X85090000Y-15875000D02*
X81915000Y-15875000D01*
X86360000Y-17145000D02*
X85090000Y-15875000D01*
X86360000Y-17145000D02*
X95317919Y-17145000D01*
X65405000Y-23495000D02*
X62865000Y-26035000D01*
X67310000Y-23495000D02*
X65405000Y-23495000D01*
X67310000Y-23495000D02*
X72390000Y-23495000D01*
X101600000Y-29845000D02*
X99060000Y-29845000D01*
X80090000Y-40005000D02*
X77470000Y-37385000D01*
X81915000Y-40005000D02*
X80090000Y-40005000D01*
X86360000Y-35560000D02*
X81915000Y-40005000D01*
X86360000Y-31115000D02*
X86360000Y-35560000D01*
X87630000Y-29845000D02*
X86360000Y-31115000D01*
X99060000Y-29845000D02*
X87630000Y-29845000D01*
X65405000Y-37465000D02*
X62865000Y-40005000D01*
X67310000Y-37465000D02*
X65405000Y-37465000D01*
X77390000Y-37465000D02*
X77470000Y-37385000D01*
X67310000Y-37465000D02*
X77390000Y-37465000D01*
X101600000Y-17145000D02*
X99060000Y-17145000D01*
X77470000Y-4445000D02*
X72390000Y-9525000D01*
X80010000Y-1905000D02*
X77470000Y-4445000D01*
X81915000Y-1905000D02*
X80010000Y-1905000D01*
X85090000Y-1905000D02*
X81915000Y-1905000D01*
X86360000Y-3175000D02*
X85090000Y-1905000D01*
X98750998Y-17145000D02*
X99060000Y-17145000D01*
X86360000Y-3175000D02*
X86360000Y-7620000D01*
X86360000Y-7620000D02*
X93345000Y-14605000D01*
X93345000Y-14605000D02*
X96210998Y-14605000D01*
X96210998Y-14605000D02*
X98750998Y-17145000D01*
X65405000Y-9525000D02*
X62865000Y-12065000D01*
X67310000Y-9525000D02*
X65405000Y-9525000D01*
X67310000Y-9525000D02*
X72390000Y-9525000D01*
X29845000Y-26035000D02*
X29845000Y-15875000D01*
X27940000Y-12065000D02*
X24130000Y-12065000D01*
X29845000Y-13970000D02*
X27940000Y-12065000D01*
X29845000Y-15875000D02*
X29845000Y-13970000D01*
X34290000Y-15875000D02*
X34290000Y-26035000D01*
X34290000Y-26035000D02*
X34290000Y-27940000D01*
X34290000Y-27940000D02*
X32385000Y-29845000D01*
X32385000Y-29845000D02*
X24130000Y-29845000D01*
M02*
