M48
; DRILL file {KiCad 5.1.7-a382d34a8~87~ubuntu16.04.1} date Sat Jan  2 19:07:05 2021
; FORMAT={-:-/ absolute / metric / decimal}
; #@! TF.CreationDate,2021-01-02T19:07:05+01:00
; #@! TF.GenerationSoftware,Kicad,Pcbnew,5.1.7-a382d34a8~87~ubuntu16.04.1
; #@! TF.FileFunction,Plated,1,2,PTH
FMAT,2
METRIC
T1C0.800
T2C0.900
T3C1.000
T4C1.100
T5C1.200
T6C3.200
%
G90
G05
T1
X58.42Y-37.385
X77.47Y-9.445
X86.36Y-31.115
X86.36Y-38.735
X86.36Y-3.175
X86.36Y-10.795
X77.47Y-32.385
X77.47Y-37.385
X58.42Y-18.415
X58.42Y-23.415
X58.42Y-32.385
X58.42Y-4.445
X58.42Y-9.445
X77.47Y-18.415
X77.47Y-23.415
X86.36Y-17.145
X86.36Y-24.765
X77.47Y-4.445
T2
X90.805Y-34.925
X93.345Y-34.925
X90.805Y-6.985
X93.345Y-6.985
X90.805Y-20.955
X93.345Y-20.955
T3
X99.06Y-12.065
X99.06Y-14.605
X99.06Y-17.145
X99.06Y-19.685
X99.06Y-22.225
X99.06Y-24.765
X99.06Y-27.305
X99.06Y-29.845
X101.6Y-12.065
X101.6Y-14.605
X101.6Y-17.145
X101.6Y-19.685
X101.6Y-22.225
X101.6Y-24.765
X101.6Y-27.305
X101.6Y-29.845
T4
X34.29Y-5.715
X34.29Y-15.875
X81.915Y-1.905
X81.915Y-12.065
X67.31Y-32.385
X67.31Y-34.925
X67.31Y-37.465
X81.915Y-29.845
X81.915Y-40.005
X34.29Y-26.035
X34.29Y-36.195
X62.865Y-29.845
X62.865Y-40.005
X62.865Y-1.905
X62.865Y-12.065
X67.31Y-4.445
X67.31Y-6.985
X67.31Y-9.525
X29.845Y-5.715
X29.845Y-15.875
X62.865Y-15.875
X62.865Y-26.035
X67.31Y-18.415
X67.31Y-20.955
X67.31Y-23.495
X29.845Y-26.035
X29.845Y-36.195
X81.915Y-15.875
X81.915Y-26.035
T5
X24.13Y-12.065
X24.13Y-20.955
X24.13Y-29.845
X46.355Y-7.105
X46.355Y-14.605
X46.355Y-27.305
X46.355Y-34.805
T6
X24.13Y-3.175
X24.13Y-38.735
X100.33Y-3.175
X100.33Y-38.735
T0
M30
